<svg xmlns="http://www.w3.org/2000/svg" xmlns:xlink="http://www.w3.org/1999/xlink" viewBox="0 0 919.4 655.73"><defs><style>.cls-1{fill:none;}.cls-2{fill:url(#未命名的渐变_25);}.cls-3{fill:url(#未命名的渐变_25-2);}.cls-4{fill:url(#未命名的渐变_22);}.cls-5{fill:#f5222d;}.cls-6{fill:url(#未命名的渐变_22-2);}.cls-7{fill:url(#未命名的渐变_25-3);}.cls-8{isolation:isolate;}.cls-9{clip-path:url(#clip-path);}.cls-10{fill:#858585;}.cls-11{fill:#8a8a8a;}.cls-12{fill:#8f8f8f;}.cls-13{fill:#949494;}.cls-14{fill:#999;}.cls-15{fill:#9e9e9e;}.cls-16{fill:#a3a3a3;}.cls-17{fill:#a8a8a8;}.cls-18{fill:#adadad;}.cls-19{fill:#b3b3b3;}.cls-20{fill:#b8b8b8;}.cls-21{fill:#bdbdbd;}.cls-22{fill:#c2c2c2;}.cls-23{fill:#c7c7c7;}.cls-24{fill:#ccc;}.cls-25{fill:#d1d1d1;}.cls-26{fill:#d6d6d6;}.cls-27{fill:#dbdbdb;}.cls-28{fill:#e0e0e0;}.cls-29{fill:#e6e6e6;}.cls-30{fill:#ebebeb;}.cls-31{fill:#f0f0f0;}.cls-32{fill:#f5f5f5;}.cls-33{fill:#fafafa;}.cls-34{fill:#fff;}.cls-35{fill:#cf1322;}.cls-36{fill:url(#未命名的渐变_18);}.cls-37{fill:url(#未命名的渐变_18-2);}.cls-38{fill:url(#未命名的渐变_18-3);}.cls-39{fill:url(#未命名的渐变_18-4);}.cls-40{fill:url(#未命名的渐变_18-5);}.cls-41{fill:#dcdcdc;}.cls-42{clip-path:url(#clip-path-2);}.cls-43{fill:#ffccc7;}.cls-44{fill:#c5c5c5;}.cls-45{clip-path:url(#clip-path-3);}.cls-46{fill:#ff4d4f;}.cls-47{clip-path:url(#clip-path-4);}.cls-48{fill:url(#未命名的渐变_20);}.cls-49{fill:url(#未命名的渐变_20-2);}.cls-50{fill:url(#未命名的渐变_20-3);}.cls-51{fill:url(#未命名的渐变_20-4);}.cls-52{fill:url(#未命名的渐变_20-5);}.cls-53{fill:gray;}.cls-54{clip-path:url(#clip-path-5);}.cls-55{clip-path:url(#clip-path-6);}.cls-56{fill:url(#未命名的渐变_7);}.cls-57{fill:#2b304f;}.cls-58{fill:#da4147;}.cls-59{fill:#fcee21;}.cls-60{fill:#2c3154;}.cls-61{fill:#ffa34e;}.cls-62{fill:#f7931e;}.cls-63{fill:#fbb03b;}.cls-64{fill:url(#未命名的渐变_7-2);}.cls-65{fill:#ff6162;}.cls-66{fill:url(#未命名的渐变_18-6);}.cls-67{fill:url(#未命名的渐变_18-7);}</style><linearGradient id="未命名的渐变_25" x1="-1292.68" y1="311.72" x2="-993.95" y2="311.72" gradientTransform="translate(1796)" gradientUnits="userSpaceOnUse"><stop offset="0" stop-color="#fcbd60"/><stop offset="1" stop-color="#ff2a9d"/></linearGradient><linearGradient id="未命名的渐变_25-2" x1="8599.95" y1="317.58" x2="8964.99" y2="317.58" gradientTransform="matrix(-1, 0, 0, 1, 9519.35, 0)" xlink:href="#未命名的渐变_25"/><linearGradient id="未命名的渐变_22" x1="8744.78" y1="431.37" x2="9075.76" y2="431.37" gradientTransform="matrix(-1, 0, 0, 1, 9519.35, 0)" gradientUnits="userSpaceOnUse"><stop offset="0" stop-color="#ffe496"/><stop offset="1" stop-color="#ff446f"/></linearGradient><linearGradient id="未命名的渐变_22-2" x1="8696.9" y1="408.87" x2="8988.67" y2="408.87" gradientTransform="matrix(-1, 0, 0, 1, 9132.09, 0)" xlink:href="#未命名的渐变_22"/><linearGradient id="未命名的渐变_25-3" x1="8636.63" y1="511.74" x2="8961.71" y2="511.74" gradientTransform="matrix(-1, 0, 0, 1, 9132.09, 0)" xlink:href="#未命名的渐变_25"/><clipPath id="clip-path" transform="translate(0 0)"><path class="cls-1" d="M306.77,188.86l141-81.92c-25.36,14.74-40.45,51.63-40.62,109.76-.3,107.62,42.56,197.32,126.91,246,20.94,12.09,41.9,17.49,54.15,12.51l-141,81.92c-12.25,5-33.21-.43-54.15-12.52-84.35-48.69-127.21-138.39-126.91-246C266.32,240.49,281.41,203.6,306.77,188.86Z"/></clipPath><linearGradient id="未命名的渐变_18" x1="378.92" y1="304.3" x2="574.07" y2="304.3" gradientUnits="userSpaceOnUse"><stop offset="0" stop-color="#fff"/><stop offset="1" stop-color="#ff4d4f"/></linearGradient><linearGradient id="未命名的渐变_18-2" x1="350.72" y1="320.68" x2="545.88" y2="320.68" xlink:href="#未命名的渐变_18"/><linearGradient id="未命名的渐变_18-3" x1="322.53" y1="337.07" x2="517.69" y2="337.07" xlink:href="#未命名的渐变_18"/><linearGradient id="未命名的渐变_18-4" x1="294.34" y1="353.45" x2="489.5" y2="353.45" xlink:href="#未命名的渐变_18"/><linearGradient id="未命名的渐变_18-5" x1="266.15" y1="369.83" x2="461.31" y2="369.83" xlink:href="#未命名的渐变_18"/><clipPath id="clip-path-2" transform="translate(0 0)"><polygon class="cls-1" points="371.52 334.68 512.48 252.77 665.47 341.09 524.51 423.01 371.52 334.68"/></clipPath><clipPath id="clip-path-3" transform="translate(0 0)"><polygon class="cls-1" points="524.51 423.01 665.47 341.09 664.83 564.35 523.87 646.27 524.51 423.01"/></clipPath><clipPath id="clip-path-4" transform="translate(0 0)"><path class="cls-1" d="M240.65,94.65l141-81.92C418.91-8.95,470-2.75,526.51,29.88l-141,81.92C329,79.16,278,73,240.65,94.65Z"/></clipPath><linearGradient id="未命名的渐变_20" x1="512.41" y1="27.23" x2="353.41" y2="27.23" gradientUnits="userSpaceOnUse"><stop offset="0" stop-color="#fff"/><stop offset="1" stop-color="#ffccc7"/></linearGradient><linearGradient id="未命名的渐变_20-2" x1="484.21" y1="43.61" x2="325.22" y2="43.61" xlink:href="#未命名的渐变_20"/><linearGradient id="未命名的渐变_20-3" x1="456.02" y1="59.99" x2="297.03" y2="59.99" xlink:href="#未命名的渐变_20"/><linearGradient id="未命名的渐变_20-4" x1="427.83" y1="76.38" x2="268.84" y2="76.38" xlink:href="#未命名的渐变_20"/><linearGradient id="未命名的渐变_20-5" x1="399.64" y1="92.76" x2="240.65" y2="92.76" xlink:href="#未命名的渐变_20"/><clipPath id="clip-path-5" transform="translate(0 0)"><polygon class="cls-1" points="518.58 252.21 659.54 170.29 613.41 206.59 472.45 288.51 518.58 252.21"/></clipPath><clipPath id="clip-path-6" transform="translate(0 0)"><path class="cls-1" d="M385.55,111.8l141-81.92c62.24,35.94,105.2,91.54,133,140.41l-141,81.92C490.76,203.34,447.79,147.73,385.55,111.8Z"/></clipPath><linearGradient id="未命名的渐变_7" x1="524.51" y1="368.82" x2="178.3" y2="368.82" gradientUnits="userSpaceOnUse"><stop offset="0" stop-color="#f5222d"/><stop offset="1" stop-color="#cf1322"/></linearGradient><linearGradient id="未命名的渐变_7-2" x1="566.06" y1="536.88" x2="637.56" y2="536.88" xlink:href="#未命名的渐变_7"/><linearGradient id="未命名的渐变_18-6" x1="371.56" y1="403.88" x2="524.56" y2="403.88" xlink:href="#未命名的渐变_18"/><linearGradient id="未命名的渐变_18-7" x1="371.56" y1="430.88" x2="524.56" y2="430.88" xlink:href="#未命名的渐变_18"/></defs><g id="图层_2" data-name="图层 2"><g id="图层_1-2" data-name="图层 1"><path class="cls-2" d="M802.05,153.81A12,12,0,1,0,788,165.65c-7.14,66.4-39.42,99.17-65.92,115a137.42,137.42,0,0,1-35.67,14.88c-.18-1.29-1.3-2.72-3.15-4.07,63.12-39,70.17-116.77,70.72-142.52a12.09,12.09,0,1,0-2.41-.24c-.49,25.27-7.35,103-70.6,141.33a32.47,32.47,0,0,0-10.15-3.28c36.08-41.57,43-122.66,44.29-145.13a10.8,10.8,0,1,0-2.4,0c-1.27,22.58-8.3,104.34-44.81,144.83-1-.08-2.05-.14-3.12-.14q-1.26,0-2.49.09L651,148.92a12,12,0,1,0-2.43-.1l11.3,137.81a37.4,37.4,0,0,0-6.75,1.52C618.51,270,608.22,192.3,605.44,160.94a12,12,0,1,0-2.48-.06c2.6,31.08,12.47,107.75,47.22,128.4a19.31,19.31,0,0,0-5.09,3.18c-61.48-17.42-78.37-87.88-82.62-114.89a10.73,10.73,0,1,0-2.53.33h.14c4.3,27.28,21.36,98.34,83.37,116.59a3.35,3.35,0,0,0-.4,1.46,3.8,3.8,0,0,0,1.77,2.86c-58.25,1.52-89.45-27.48-105.5-52.81-12.09-19.09-17.59-38.86-19.94-50.21a10.76,10.76,0,1,0-5.21,1.39,10.94,10.94,0,0,0,2.94-.45c2.45,11.6,8,31.38,20.13,50.48,16,25.25,46.6,54.09,103.14,54.09,2.9,0,5.91-.1,9-.26a49.63,49.63,0,0,0,14.7,2.13C679.19,463,645.72,497.77,645.37,498.1l2.5,2.62,2.47,2.64c1.51-1.41,36.47-36.15,20.92-200.52,6.46-.68,11.58-2.34,13.86-4.46a140.06,140.06,0,0,0,38-15.56c27-16.16,60-49.5,67.19-117A12,12,0,0,0,802.05,153.81Z" transform="translate(0 0)"/><path class="cls-3" d="M642.34,403.45c-2.41-7.23-36.17-132.54,43.36-53,0,0,24.09,33.73,9.64,101.18-4.82,33.73,77.09-24.09,36.14-120.45s45.77-190.32,72.27-144.55S789.29,324,777.25,352.86s0,69.86,28.91,31.32,53-118,45.77-200S883.25,44.49,895.29,44.49s24.1,7.23,24.1,38.55c0,0,7,483.63-333.47,507.62a5.81,5.81,0,0,1-5.26-9,56.25,56.25,0,0,0,8.68-38.51c-4.82-38.55-16.86-48.19-31.32-65s16.87-72.27,41-16.86,16.86,72.27,48.18,67.45-2.41-118-4.82-125.27-38.55-130.09,43.36-53" transform="translate(0 0)"/><path class="cls-4" d="M559.57,479.37a6.75,6.75,0,0,0,7.62,3.26c3-.9,6-3.92,6-12.35,0-14.89-13.15-133.13-16.22-160.56a39.43,39.43,0,0,1,.7-13c3.09-14,12.08-41.37,32.39-19.21,23.66,25.82,7,161.17,3.14,189.81a8.3,8.3,0,0,0,7.69,9.48c4.56.17,11.19-1.75,20.49-9,18.19-14.15,50-77.51,59.71-97.52a34,34,0,0,1,14.39-15.28c7.63-4,17.51-5.09,24.67,9.21,7.23,14.46,12,26.5-9.64,50.59-17.43,19.37-57.82,43.37-67.45,69.87s24.09,12,24.09,12,89.13-60.22,103.59-38.54c7.23,10.84,3,20.47-3,27.4a40.67,40.67,0,0,1-22.54,12.81C725.64,502.51,679,514,669.58,532.92c-13.63,27.26-65.05,72.27-108.41,57.82s-4.82-55.41-55.41-86.73-96.36-98.77-26.5-79.5C532.32,439.15,553.93,469.76,559.57,479.37Z" transform="translate(0 0)"/><path class="cls-5" d="M286.85,580S130.47,447.31,59.7,296.57a30.28,30.28,0,0,0-8.66-11C36.19,273.87-1.21,251.37,0,323,1.71,333.79,15.08,472.26,286.85,580Z" transform="translate(0 0)"/><path class="cls-6" d="M364.87,477.5c1.93-5.77,28.91-105.93-34.66-42.36,0,0-19.26,27-7.7,80.88,3.85,27-61.62-19.26-28.88-96.28S257,267.62,235.86,304.21,247.41,414,257,437.07s0,55.84-23.11,25-42.36-94.35-36.58-159.82-25-111.68-34.66-111.68-19.26,5.78-19.26,30.81c0,0-5.63,386.55,266.53,405.73a4.65,4.65,0,0,0,4.21-7.17,45,45,0,0,1-6.94-30.78c3.85-30.81,13.48-38.52,25-52s-13.48-57.77-32.73-13.48S386.05,581.48,361,577.63s1.92-94.35,3.85-100.13,30.81-104-34.66-42.36" transform="translate(0 0)"/><path class="cls-7" d="M312,597.08s-36.58-21.18-71.24-17.33-86.65-15.41-65.47-36.59c20.73-20.72,76.49-13.79,98.71,8.16a3.78,3.78,0,0,0,4.52.76c1.22-.71,1.73-2.16-1.18-5.07-5.77-5.77-63.54-42.36-23.1-63.54,35.7-18.7,56.39,45.17,60.75,60.37a5.22,5.22,0,0,0,5.44,3.89c2.16-.24,4.09-1.68,3.13-6.49C320.9,527.88,312,497,302.38,479.62c-6.74-12.14,0-61.62,25-52S364,483.47,364,512.35c0,11.56,9.63-7.7,9.63-7.7s32.73-90.5,48.14-57.76-9.51,88.45-25,104c-5.78,5.78,9.62,1.93,9.62,1.93s78.95-19.26,88.58,15.4-115.53-7.7-169.45,28.89Z" transform="translate(0 0)"/><g class="cls-8"><g class="cls-8"><g class="cls-9"><g class="cls-8"><path class="cls-10" d="M306.77,188.86l141-81.92c-8.05,4.68-15.06,11.58-20.89,20.69l-141,81.91c5.83-9.1,12.84-16,20.89-20.68" transform="translate(0 0)"/><path class="cls-11" d="M285.88,209.54l141-81.91a89.47,89.47,0,0,0-5.37,9.72l-141,81.92a90.59,90.59,0,0,1,5.37-9.73" transform="translate(0 0)"/><path class="cls-12" d="M280.51,219.27l141-81.92q-2,4.26-3.79,9l-141,81.92q1.75-4.73,3.79-9" transform="translate(0 0)"/><path class="cls-13" d="M276.72,228.24l141-81.92q-1.57,4.25-2.93,8.88l-141,81.91q1.35-4.62,2.93-8.87" transform="translate(0 0)"/><path class="cls-14" d="M273.79,237.11l141-81.91q-1.28,4.35-2.35,9l-141,81.91c.72-3.12,1.5-6.14,2.35-9" transform="translate(0 0)"/><path class="cls-15" d="M271.44,246.15l141-81.91q-1,4.5-1.86,9.32l-141,81.92q.84-4.81,1.86-9.33" transform="translate(0 0)"/><path class="cls-16" d="M269.58,255.48l141-81.92c-.54,3.13-1,6.37-1.44,9.7l-141,81.91q.63-5,1.44-9.69" transform="translate(0 0)"/><path class="cls-17" d="M268.14,265.17l141-81.91c-.41,3.32-.77,6.74-1.05,10.26l-141,81.91c.28-3.51.64-6.93,1.05-10.26" transform="translate(0 0)"/><path class="cls-18" d="M267.09,275.43l141-81.91q-.44,5.29-.67,10.88l-141,81.92q.24-5.6.67-10.89" transform="translate(0 0)"/><path class="cls-19" d="M266.42,286.32l141-81.92q-.24,5.65-.27,11.61l-141,81.91q0-5.94.27-11.6" transform="translate(0 0)"/><path class="cls-20" d="M266.15,297.92l141-81.91v.69q0,6.48.17,12.86l-141,81.91q-.18-6.37-.17-12.85v-.7" transform="translate(0 0)"/><path class="cls-21" d="M266.32,311.47l141-81.91q.2,6.33.58,12.58l-141,81.92q-.39-6.26-.58-12.59" transform="translate(0 0)"/><path class="cls-22" d="M266.9,324.06l141-81.92q.38,5.88.92,11.68L267.83,335.74q-.56-5.81-.93-11.68" transform="translate(0 0)"/><path class="cls-23" d="M267.83,335.74l141-81.92q.53,5.52,1.22,11L269,346.69q-.69-5.43-1.21-10.95" transform="translate(0 0)"/><path class="cls-24" d="M269,346.69l141-81.91q.64,5.1,1.43,10.12L270.48,356.82q-.8-5-1.44-10.13" transform="translate(0 0)"/><path class="cls-25" d="M270.48,356.82l141-81.92q.76,4.85,1.66,9.61l-141,81.92c-.6-3.18-1.15-6.39-1.65-9.61" transform="translate(0 0)"/><path class="cls-26" d="M272.13,366.43l141-81.92q.87,4.65,1.87,9.23L274,375.66c-.66-3.06-1.29-6.13-1.87-9.23" transform="translate(0 0)"/><path class="cls-27" d="M274,375.66l141-81.92q.93,4.29,2,8.52L276,384.18c-.69-2.82-1.36-5.66-2-8.52" transform="translate(0 0)"/><path class="cls-28" d="M276,384.18l141-81.92q1,4.14,2.15,8.2l-141,81.91q-1.12-4.06-2.15-8.19" transform="translate(0 0)"/><path class="cls-29" d="M278.13,392.37l141-81.91q1.07,3.82,2.22,7.61L280.35,400c-.77-2.52-1.51-5.05-2.22-7.61" transform="translate(0 0)"/><path class="cls-30" d="M280.35,400l141-81.91q1.1,3.58,2.28,7.12l-141,81.91c-.79-2.35-1.55-4.73-2.28-7.12" transform="translate(0 0)"/><path class="cls-31" d="M282.63,407.1l141-81.91q1.11,3.31,2.29,6.58l-141,81.91c-.79-2.17-1.55-4.37-2.29-6.58" transform="translate(0 0)"/><path class="cls-32" d="M284.92,413.68l141-81.91q1.13,3.14,2.33,6.22l-141,81.91c-.8-2-1.58-4.13-2.33-6.22" transform="translate(0 0)"/><path class="cls-33" d="M287.25,419.9l141-81.91c.75,1.91,1.51,3.82,2.3,5.71l-141,81.91c-.79-1.89-1.55-3.79-2.3-5.71" transform="translate(0 0)"/><path class="cls-34" d="M289.55,425.61l141-81.91c.78,1.89,1.58,3.76,2.41,5.63L292,431.25q-1.24-2.81-2.41-5.64" transform="translate(0 0)"/><path class="cls-34" d="M292,431.25l141-81.92c.82,1.87,1.67,3.72,2.53,5.56l-141,81.92c-.86-1.84-1.71-3.7-2.53-5.56" transform="translate(0 0)"/><path class="cls-34" d="M294.49,436.81l141-81.92c.87,1.85,1.75,3.67,2.66,5.49l-141,81.92c-.91-1.82-1.79-3.65-2.66-5.49" transform="translate(0 0)"/><path class="cls-34" d="M297.15,442.3l141-81.92q1.74,3.51,3.59,6.95l-141,81.92q-1.85-3.44-3.59-6.95" transform="translate(0 0)"/><path class="cls-34" d="M300.74,449.25l141-81.92q2.64,4.94,5.49,9.72L306.23,459q-2.84-4.79-5.49-9.72" transform="translate(0 0)"/><path class="cls-34" d="M306.23,459l141-81.92q3.42,5.74,7.12,11.27l-141,81.91q-3.71-5.52-7.12-11.26" transform="translate(0 0)"/><path class="cls-34" d="M313.35,470.23l141-81.91q3.21,4.8,6.65,9.43L320,479.67q-3.44-4.64-6.65-9.44" transform="translate(0 0)"/><path class="cls-34" d="M320,479.67l141-81.92q2,2.73,4.1,5.38l-141,81.92c-1.39-1.77-2.76-3.57-4.1-5.38" transform="translate(0 0)"/><path class="cls-34" d="M324.1,485.05l141-81.92c1.39,1.78,2.81,3.53,4.25,5.27L328.36,490.31c-1.45-1.73-2.87-3.49-4.26-5.26" transform="translate(0 0)"/><path class="cls-34" d="M328.36,490.31l141-81.91c1.36,1.63,2.75,3.24,4.15,4.84l-141,81.92c-1.4-1.6-2.78-3.21-4.14-4.85" transform="translate(0 0)"/><path class="cls-34" d="M332.5,495.16l141-81.92c1.4,1.6,2.83,3.18,4.27,4.74l-141,81.91c-1.44-1.56-2.87-3.14-4.27-4.73" transform="translate(0 0)"/><path class="cls-33" d="M336.77,499.89l141-81.91q2.32,2.5,4.73,4.95l-141,81.91c-1.6-1.62-3.17-3.28-4.73-4.95" transform="translate(0 0)"/><path class="cls-32" d="M341.5,504.84l141-81.91c1.63,1.65,3.28,3.29,5,4.9l-141,81.91q-2.52-2.42-5-4.9" transform="translate(0 0)"/><path class="cls-31" d="M346.46,509.74l141-81.91q2.7,2.58,5.47,5.08l-141,81.92q-2.78-2.51-5.47-5.09" transform="translate(0 0)"/><path class="cls-30" d="M351.93,514.83l141-81.92c1.88,1.69,3.8,3.36,5.74,5l-141,81.92c-1.94-1.64-3.86-3.31-5.74-5" transform="translate(0 0)"/><path class="cls-29" d="M357.67,519.83l141-81.92q3,2.55,6.14,5l-141,81.92c-2.08-1.64-4.12-3.31-6.14-5" transform="translate(0 0)"/><path class="cls-28" d="M363.81,524.84l141-81.92c2.1,1.65,4.22,3.27,6.38,4.86L370.2,529.7q-3.24-2.38-6.39-4.86" transform="translate(0 0)"/><path class="cls-27" d="M370.2,529.7l141-81.92c2.21,1.62,4.44,3.21,6.71,4.77L376.91,534.46c-2.28-1.55-4.51-3.14-6.71-4.76" transform="translate(0 0)"/><path class="cls-26" d="M376.91,534.46l141-81.91c2.31,1.58,4.66,3.12,7,4.64l-141,81.91c-2.38-1.51-4.73-3.06-7-4.64" transform="translate(0 0)"/><path class="cls-25" d="M383.94,539.1l141-81.91c2.42,1.54,4.88,3,7.38,4.52L391.33,543.62c-2.5-1.47-5-3-7.39-4.52" transform="translate(0 0)"/><path class="cls-24" d="M391.33,543.62l141-81.91,1.74,1c1.19.68,2.38,1.35,3.57,2l-141,81.92c-1.19-.65-2.38-1.31-3.57-2l-1.73-1" transform="translate(0 0)"/><path class="cls-23" d="M396.63,546.63l141-81.92c1.53.83,3.07,1.63,4.6,2.38L401.23,549c-1.53-.76-3.07-1.55-4.6-2.38" transform="translate(0 0)"/><path class="cls-22" d="M401.23,549l141-81.92q2.28,1.14,4.53,2.14l-141,81.92q-2.25-1-4.53-2.14" transform="translate(0 0)"/><path class="cls-21" d="M405.76,551.15l141-81.92c1.49.67,3,1.29,4.43,1.88L410.19,553q-2.19-.88-4.43-1.88" transform="translate(0 0)"/><path class="cls-20" d="M410.19,553l141-81.92c1.45.58,2.88,1.12,4.3,1.62l-141,81.91c-1.42-.49-2.85-1-4.3-1.61" transform="translate(0 0)"/><path class="cls-19" d="M414.49,554.64l141-81.91c1.39.49,2.77.94,4.13,1.35L418.62,556c-1.36-.41-2.74-.87-4.13-1.36" transform="translate(0 0)"/><path class="cls-18" d="M418.62,556l141-81.92c1.33.4,2.65.77,3.95,1.1l-141,81.91c-1.3-.32-2.62-.69-3.95-1.09" transform="translate(0 0)"/><path class="cls-17" d="M422.57,557.09l141-81.91c1.28.31,2.54.6,3.77.84l-141,81.91c-1.23-.24-2.49-.52-3.77-.84" transform="translate(0 0)"/><path class="cls-16" d="M426.34,557.93,567.3,476c1.22.23,2.42.43,3.59.59l-141,81.92c-1.17-.16-2.37-.36-3.59-.6" transform="translate(0 0)"/><path class="cls-15" d="M429.93,558.53l141-81.92c1.16.16,2.3.28,3.41.36L433.35,558.88c-1.12-.08-2.26-.19-3.42-.35" transform="translate(0 0)"/><path class="cls-14" d="M433.35,558.88,574.3,477c1.12.08,2.21.11,3.27.11L436.61,559c-1.06,0-2.15,0-3.26-.12" transform="translate(0 0)"/><path class="cls-13" d="M436.61,559l141-81.92c1.09,0,2.15-.05,3.18-.14l-141,81.91c-1,.1-2.09.14-3.18.15" transform="translate(0 0)"/><path class="cls-12" d="M439.79,558.85l141-81.91a30.21,30.21,0,0,0,3.13-.45l-141,81.92a27.75,27.75,0,0,1-3.13.44" transform="translate(0 0)"/><path class="cls-11" d="M442.92,558.41l141-81.92a24.38,24.38,0,0,0,3.34-.9l-141,81.92a24,24,0,0,1-3.34.9" transform="translate(0 0)"/><path class="cls-10" d="M446.26,557.51l141-81.92c.32-.11.64-.23.95-.36l-141,81.92c-.31.13-.63.25-.95.36" transform="translate(0 0)"/></g><path class="cls-35" d="M574.07,483.43c-12.24,5-33.2-.43-54.14-12.52-84.35-48.7-127.22-138.4-126.91-246,.16-58.14,15.26-95,40.61-109.76l14.1-8.19c-25.36,14.73-40.46,51.62-40.62,109.76C406.8,324.32,449.67,414,534,462.72c20.94,12.09,41.9,17.49,54.15,12.52l-14.1,8.19" transform="translate(0 0)"/><path class="cls-36" d="M560,491.62c-12.25,5-33.21-.43-54.15-12.52-84.35-48.7-127.22-138.39-126.91-246,.16-58.14,15.26-95,40.61-109.76l14.1-8.19C408.28,129.87,393.18,166.76,393,224.9c-.31,107.61,42.56,197.31,126.91,246,20.94,12.09,41.9,17.5,54.14,12.52L560,491.62" transform="translate(0 0)"/><path class="cls-35" d="M545.88,499.81c-12.25,5-33.21-.43-54.15-12.52-84.34-48.7-127.21-138.39-126.91-246,.17-58.13,15.27-95,40.62-109.76l14.09-8.19c-25.35,14.73-40.45,51.62-40.61,109.76-.31,107.62,42.56,197.31,126.91,246,20.94,12.09,41.9,17.5,54.15,12.52l-14.1,8.19" transform="translate(0 0)"/><path class="cls-37" d="M531.78,508c-12.24,5-33.2-.43-54.14-12.52-84.35-48.69-127.22-138.39-126.91-246,.16-58.13,15.26-95,40.61-109.76l14.1-8.19c-25.35,14.73-40.45,51.63-40.62,109.76-.3,107.62,42.57,197.31,126.91,246,20.94,12.09,41.9,17.5,54.15,12.52L531.78,508" transform="translate(0 0)"/><path class="cls-35" d="M517.69,516.19c-12.25,5-33.21-.42-54.15-12.51-84.35-48.7-127.21-138.4-126.91-246,.17-58.13,15.26-95,40.62-109.76l14.09-8.19c-25.35,14.74-40.45,51.63-40.61,109.76-.31,107.62,42.56,197.32,126.91,246,20.94,12.09,41.9,17.5,54.14,12.52l-14.09,8.19" transform="translate(0 0)"/><path class="cls-38" d="M503.6,524.38c-12.25,5-33.21-.42-54.15-12.51-84.35-48.7-127.22-138.4-126.91-246,.16-58.13,15.26-95,40.61-109.76l14.1-8.19c-25.36,14.74-40.45,51.63-40.62,109.76-.3,107.62,42.56,197.32,126.91,246,20.94,12.09,41.9,17.49,54.15,12.51l-14.09,8.19" transform="translate(0 0)"/><path class="cls-35" d="M489.5,532.58c-12.25,5-33.21-.43-54.15-12.52-84.35-48.7-127.22-138.4-126.91-246,.16-58.14,15.26-95,40.61-109.76l14.1-8.2c-25.35,14.74-40.45,51.63-40.61,109.76-.31,107.62,42.56,197.32,126.91,246,20.94,12.09,41.9,17.49,54.15,12.51l-14.1,8.2" transform="translate(0 0)"/><path class="cls-39" d="M475.4,540.77c-12.24,5-33.2-.43-54.15-12.52-84.34-48.7-127.21-138.39-126.91-246,.17-58.14,15.27-95,40.62-109.76l14.09-8.19C323.7,179,308.6,215.91,308.44,274.05c-.31,107.61,42.56,197.31,126.91,246,20.94,12.09,41.9,17.5,54.15,12.52l-14.1,8.19" transform="translate(0 0)"/><path class="cls-35" d="M461.31,549c-12.25,5-33.21-.43-54.15-12.52-84.35-48.7-127.22-138.39-126.91-246,.16-58.13,15.26-95,40.61-109.76l14.1-8.19c-25.35,14.73-40.45,51.62-40.62,109.76-.3,107.62,42.57,197.31,126.91,246,20.95,12.09,41.91,17.5,54.15,12.52L461.31,549" transform="translate(0 0)"/><path class="cls-40" d="M447.21,557.15c-12.25,5-33.21-.43-54.15-12.52-84.35-48.7-127.21-138.39-126.91-246,.17-58.13,15.26-95,40.62-109.76l14.09-8.19c-25.35,14.73-40.45,51.63-40.61,109.76-.31,107.62,42.56,197.31,126.91,246,20.94,12.09,41.9,17.5,54.15,12.52l-14.1,8.19" transform="translate(0 0)"/></g></g><polygon class="cls-41" points="371.52 334.68 512.48 252.77 665.47 341.09 524.51 423.01 371.52 334.68"/><g class="cls-8"><g class="cls-42"><polyline class="cls-35" points="665.46 341.09 512.48 252.77 498.38 260.96 651.37 349.29 665.46 341.09"/><polyline class="cls-43" points="651.37 349.29 498.38 260.96 484.28 269.15 637.27 357.48 651.37 349.29"/><polyline class="cls-35" points="637.27 357.48 484.28 269.15 470.19 277.34 623.18 365.67 637.27 357.48"/><polyline class="cls-43" points="623.18 365.67 470.19 277.34 456.09 285.53 609.08 373.86 623.18 365.67"/><polyline class="cls-35" points="609.08 373.86 456.09 285.53 442 293.73 594.99 382.05 609.08 373.86"/><polyline class="cls-43" points="594.99 382.05 442 293.73 427.9 301.92 580.89 390.24 594.99 382.05"/><polyline class="cls-35" points="580.89 390.24 427.9 301.92 413.81 310.11 566.79 398.44 580.89 390.24"/><polyline class="cls-43" points="566.79 398.44 413.81 310.11 399.71 318.3 552.7 406.63 566.79 398.44"/><polyline class="cls-35" points="552.7 406.63 399.71 318.3 385.61 326.49 538.6 414.82 552.7 406.63"/><polyline class="cls-43" points="538.6 414.82 385.61 326.49 371.52 334.68 524.51 423.01 538.6 414.82"/></g></g><polygon class="cls-44" points="524.51 423.01 665.47 341.09 664.83 564.35 523.87 646.27 524.51 423.01"/><g class="cls-8"><g class="cls-45"><polyline class="cls-46" points="664.83 564.35 665.47 341.1 651.37 349.29 650.74 572.54 664.83 564.35"/><polyline class="cls-34" points="650.74 572.54 651.37 349.29 637.27 357.48 636.64 580.73 650.74 572.54"/><polyline class="cls-46" points="636.64 580.73 637.27 357.48 623.18 365.67 622.54 588.92 636.64 580.73"/><polyline class="cls-34" points="622.54 588.92 623.18 365.67 609.08 373.86 608.45 597.12 622.54 588.92"/><polyline class="cls-46" points="608.45 597.12 609.08 373.86 594.99 382.05 594.35 605.31 608.45 597.12"/><polyline class="cls-34" points="594.35 605.31 594.99 382.05 580.89 390.25 580.26 613.5 594.35 605.31"/><polyline class="cls-46" points="580.26 613.5 580.89 390.25 566.79 398.44 566.16 621.69 580.26 613.5"/><polyline class="cls-34" points="566.16 621.69 566.79 398.44 552.7 406.63 552.07 629.88 566.16 621.69"/><polyline class="cls-46" points="552.07 629.88 552.7 406.63 538.6 414.82 537.97 638.07 552.07 629.88"/><polyline class="cls-34" points="537.97 638.07 538.6 414.82 524.51 423.01 523.87 646.26 537.97 638.07"/></g></g><g class="cls-8"><g class="cls-47"><g class="cls-8"><path class="cls-10" d="M240.65,94.65l141-81.92a90,90,0,0,1,15.11-7l-141,81.91a90.09,90.09,0,0,0-15.11,7" transform="translate(0 0)"/><path class="cls-11" d="M255.76,87.64l141-81.91A94.2,94.2,0,0,1,410,2.07L269,84a95.55,95.55,0,0,0-13.25,3.65" transform="translate(0 0)"/><path class="cls-12" d="M269,84,410,2.07a104.21,104.21,0,0,1,11-1.6L280,82.39A101.69,101.69,0,0,0,269,84" transform="translate(0 0)"/><path class="cls-13" d="M280,82.39,421,.47Q425.94,0,431,0l-141,81.92c-3.4,0-6.75.16-10,.47" transform="translate(0 0)"/><path class="cls-14" d="M290.08,81.92,431,0q4.45,0,9,.3l-141,81.92q-4.59-.31-9.05-.3" transform="translate(0 0)"/><path class="cls-15" d="M299.13,82.22,440.09.3c3,.21,5.94.51,9,.92l-141,81.92q-4.53-.61-9-.92" transform="translate(0 0)"/><path class="cls-16" d="M308.09,83.14l141-81.92q4.29.57,8.66,1.43L316.76,84.56c-2.92-.56-5.81-1-8.67-1.42" transform="translate(0 0)"/><path class="cls-17" d="M316.76,84.56l141-81.91q4.25.83,8.57,1.9l-141,81.92c-2.88-.72-5.74-1.36-8.56-1.91" transform="translate(0 0)"/><path class="cls-18" d="M325.32,86.47l141-81.92q4.25,1.07,8.56,2.37l-141,81.91c-2.88-.87-5.73-1.65-8.56-2.36" transform="translate(0 0)"/><path class="cls-19" d="M333.88,88.83l141-81.91c2.83.85,5.68,1.79,8.56,2.8l-141,81.92c-2.88-1-5.73-2-8.56-2.81" transform="translate(0 0)"/><path class="cls-20" d="M342.44,91.64l141-81.92c2.87,1,5.75,2.1,8.66,3.26L351.1,94.9c-2.91-1.17-5.79-2.26-8.66-3.26" transform="translate(0 0)"/><path class="cls-21" d="M351.1,94.9,492.06,13q4.4,1.75,8.84,3.75l-141,81.92q-4.44-2-8.84-3.75" transform="translate(0 0)"/><path class="cls-22" d="M359.94,98.65l141-81.92q4.46,2,9,4.23l-141,81.92q-4.51-2.23-9-4.23" transform="translate(0 0)"/><path class="cls-23" d="M368.92,102.88,509.88,21q4.65,2.31,9.35,4.85l-141,81.92q-4.69-2.55-9.35-4.85" transform="translate(0 0)"/><path class="cls-24" d="M378.27,107.73l141-81.92c2.42,1.31,4.84,2.67,7.28,4.07l-141,81.92c-2.44-1.41-4.86-2.76-7.28-4.07" transform="translate(0 0)"/></g><path class="cls-35" d="M512.41,38.07C455.88,5.44,404.81-.75,367.51,20.92l14.09-8.19C418.91-8.95,470-2.75,526.5,29.88l-14.09,8.19" transform="translate(0 0)"/><path class="cls-48" d="M498.31,46.26c-56.53-32.63-107.6-38.82-144.9-17.15l14.1-8.19c37.3-21.67,88.37-15.48,144.9,17.15l-14.1,8.19" transform="translate(0 0)"/><path class="cls-35" d="M484.21,54.45C427.69,21.82,376.62,15.63,339.32,37.31l14.09-8.2c37.3-21.67,88.37-15.48,144.9,17.15l-14.1,8.19" transform="translate(0 0)"/><path class="cls-49" d="M470.12,62.65C413.59,30,362.52,23.82,325.22,45.5l14.1-8.19c37.3-21.68,88.37-15.49,144.89,17.14l-14.09,8.2" transform="translate(0 0)"/><path class="cls-35" d="M456,70.84C399.5,38.2,348.43,32,311.13,53.69l14.09-8.19c37.3-21.68,88.37-15.49,144.9,17.15L456,70.84" transform="translate(0 0)"/><path class="cls-50" d="M441.93,79C385.4,46.39,334.33,40.2,297,61.88l14.1-8.19C348.43,32,399.5,38.2,456,70.84L441.93,79" transform="translate(0 0)"/><path class="cls-35" d="M427.83,87.22c-56.52-32.63-107.6-38.82-144.9-17.15L297,61.88C334.33,40.2,385.4,46.39,441.93,79l-14.1,8.19" transform="translate(0 0)"/><path class="cls-51" d="M413.74,95.41c-56.53-32.63-107.6-38.82-144.9-17.15l14.09-8.19c37.3-21.67,88.38-15.48,144.9,17.15l-14.09,8.19" transform="translate(0 0)"/><path class="cls-35" d="M399.64,103.6C343.11,71,292,64.78,254.74,86.46l14.1-8.2c37.3-21.67,88.37-15.48,144.9,17.15l-14.1,8.19" transform="translate(0 0)"/><path class="cls-52" d="M385.54,111.8C329,79.16,278,73,240.65,94.65l14.09-8.19C292,64.78,343.11,71,399.64,103.6l-14.1,8.2" transform="translate(0 0)"/></g></g><polygon class="cls-53" points="518.58 252.21 659.54 170.29 613.41 206.59 472.45 288.51 518.58 252.21"/><g class="cls-8"><g class="cls-54"><polyline class="cls-35" points="613.41 206.59 659.54 170.29 645.45 178.48 599.31 214.78 613.41 206.59"/><polyline class="cls-34" points="599.31 214.78 645.45 178.48 631.35 186.68 585.21 222.98 599.31 214.78"/><polyline class="cls-35" points="585.21 222.98 631.35 186.68 617.25 194.87 571.12 231.17 585.21 222.98"/><polyline class="cls-34" points="571.12 231.17 617.25 194.87 603.16 203.06 557.02 239.36 571.12 231.17"/><polyline class="cls-35" points="557.02 239.36 603.16 203.06 589.06 211.25 542.93 247.55 557.02 239.36"/><polyline class="cls-34" points="542.93 247.55 589.06 211.25 574.97 219.44 528.83 255.74 542.93 247.55"/><polyline class="cls-35" points="528.83 255.74 574.97 219.44 560.87 227.63 514.74 263.94 528.83 255.74"/><polyline class="cls-34" points="514.74 263.94 560.87 227.63 546.78 235.82 500.64 272.13 514.74 263.94"/><polyline class="cls-35" points="500.64 272.13 546.78 235.82 532.68 244.02 486.54 280.32 500.64 272.13"/><polyline class="cls-34" points="486.54 280.32 532.68 244.02 518.58 252.21 472.45 288.51 486.54 280.32"/></g></g><g class="cls-8"><g class="cls-55"><g class="cls-8"><path class="cls-24" d="M385.55,111.8l141-81.92,2,1.2L387.6,113c-.68-.41-1.37-.81-2.05-1.2" transform="translate(0 0)"/><path class="cls-25" d="M387.6,113l141-81.92q4.44,2.61,8.75,5.35l-141,81.92Q392,115.6,387.6,113" transform="translate(0 0)"/><path class="cls-26" d="M396.35,118.35l141-81.92q4.34,2.76,8.55,5.65L404.9,124q-4.22-2.9-8.55-5.65" transform="translate(0 0)"/><path class="cls-27" d="M404.9,124l141-81.92q4.29,2.94,8.46,6L413.36,130q-4.17-3.07-8.46-6" transform="translate(0 0)"/><path class="cls-28" d="M413.36,130l141-81.92q4.26,3.13,8.39,6.39l-141,81.92q-4.12-3.26-8.39-6.39" transform="translate(0 0)"/><path class="cls-29" d="M421.75,136.4l141-81.92q4.23,3.35,8.31,6.78l-141,81.92q-4.08-3.45-8.31-6.78" transform="translate(0 0)"/><path class="cls-30" d="M430.06,143.18,571,61.26q4.15,3.51,8.16,7.12l-141,81.92q-4-3.62-8.16-7.12" transform="translate(0 0)"/><path class="cls-31" d="M438.22,150.3l141-81.92q4,3.65,7.91,7.36l-141,81.92q-3.88-3.72-7.91-7.36" transform="translate(0 0)"/><path class="cls-32" d="M446.13,157.66l141-81.92q3.85,3.7,7.57,7.48l-141,81.92q-3.72-3.78-7.57-7.48" transform="translate(0 0)"/><path class="cls-33" d="M453.7,165.14l141-81.92q3.66,3.75,7.19,7.54l-141,81.92q-3.52-3.8-7.19-7.54" transform="translate(0 0)"/><path class="cls-34" d="M460.89,172.68l141-81.92q3.51,3.8,6.89,7.64l-141,81.92q-3.37-3.85-6.89-7.64" transform="translate(0 0)"/><path class="cls-34" d="M467.78,180.32l141-81.92q3.43,3.91,6.74,7.88l-141,81.92q-3.3-4-6.74-7.88" transform="translate(0 0)"/><path class="cls-34" d="M474.52,188.2l141-81.92q3.51,4.23,6.87,8.49l-141,81.92q-3.36-4.26-6.87-8.49" transform="translate(0 0)"/><path class="cls-34" d="M481.39,196.69l141-81.92q3.84,4.88,7.46,9.77l-141,81.92q-3.63-4.89-7.46-9.77" transform="translate(0 0)"/><path class="cls-34" d="M488.85,206.46l141-81.92q5.43,7.33,10.4,14.67l-141,81.92q-5-7.33-10.4-14.67" transform="translate(0 0)"/><path class="cls-34" d="M499.25,221.13l141-81.92c6.09,9,11.68,17.91,16.79,26.66L516,247.79c-5.11-8.75-10.7-17.69-16.79-26.66" transform="translate(0 0)"/><path class="cls-34" d="M516,247.79l141-81.92q1.29,2.22,2.54,4.42l-141,81.92q-1.25-2.21-2.54-4.42" transform="translate(0 0)"/></g><path class="cls-35" d="M659.54,170.29c-27.83-48.87-70.79-104.47-133-140.41l-14.1,8.19c62.25,35.94,105.21,91.54,133,140.41l14.09-8.19" transform="translate(0 0)"/><path class="cls-34" d="M645.45,178.48C617.62,129.61,574.66,74,512.41,38.07l-14.1,8.2c62.25,35.93,105.21,91.53,133,140.4l14.1-8.19" transform="translate(0 0)"/><path class="cls-35" d="M631.35,186.67c-27.83-48.87-70.79-104.47-133-140.4l-14.09,8.19c62.24,35.93,105.21,91.54,133,140.4l14.1-8.19" transform="translate(0 0)"/><path class="cls-34" d="M617.25,194.86c-27.82-48.86-70.79-104.47-133-140.4l-14.1,8.19c62.25,35.94,105.21,91.54,133,140.41l14.09-8.2" transform="translate(0 0)"/><path class="cls-35" d="M603.16,203.06c-27.83-48.87-70.79-104.47-133-140.41L456,70.84c62.24,35.94,105.2,91.54,133,140.41l14.1-8.19" transform="translate(0 0)"/><path class="cls-34" d="M589.06,211.25c-27.83-48.87-70.79-104.47-133-140.41L441.93,79C504.18,115,547.14,170.57,575,219.44l14.09-8.19" transform="translate(0 0)"/><path class="cls-35" d="M575,219.44C547.14,170.57,504.18,115,441.93,79l-14.09,8.19c62.24,35.94,105.2,91.54,133,140.41l14.1-8.19" transform="translate(0 0)"/><path class="cls-34" d="M560.87,227.63c-27.83-48.87-70.79-104.47-133-140.41l-14.1,8.19C476,131.35,519,187,546.78,235.82l14.09-8.19" transform="translate(0 0)"/><path class="cls-35" d="M546.78,235.82C519,187,476,131.35,413.74,95.41l-14.1,8.2c62.25,35.93,105.21,91.54,133,140.41l14.1-8.2" transform="translate(0 0)"/><path class="cls-34" d="M532.68,244c-27.83-48.87-70.79-104.48-133-140.41l-14.09,8.19c62.24,35.93,105.21,91.54,133,140.41l14.1-8.19" transform="translate(0 0)"/></g></g><path class="cls-56" d="M385.55,111.8c62.24,35.93,105.21,91.54,133,140.41l-46.13,36.3c-20.88-35.49-45.26-67.64-84.23-90.14-71.56-41.31-121.77-6-122.07,100.25-.3,107.62,42.56,197.32,126.91,246,20.94,12.09,41.9,17.5,54.15,12.52l.28-97.59-76.2-44,.23-80.89,153,88.33-.64,223.26c-29.17,16-79.86,13.48-139.78-21.11-117.5-67.84-206.26-208.8-205.79-373.91C178.76,88.15,271,45.63,385.55,111.8Z" transform="translate(0 0)"/></g><path class="cls-57" d="M553.09,313.27s-5.85.38-1.7-7.92,6.61-11.13,4.72-18.87,4.72-20.75,12.83-18.68,14.9,10.57,14.9,14.15,2.65,20-4,26.79S553.09,313.27,553.09,313.27Z" transform="translate(0 0)"/><path class="cls-58" d="M548.75,328.93s2.08-26.7,14.72-31.51c11.7,0,19,2.17,25.37,29.53C552.62,331.29,548.75,328.93,548.75,328.93Z" transform="translate(0 0)"/><polygon class="cls-59" points="545.1 325.98 590.89 325.98 586.74 355.41 568 359.18 548.75 356.17 545.1 325.98"/><path class="cls-43" d="M563.66,283s-5.95-.85-2.27,4.53,4.61,6.27,4.06,9.9c-.76,5,4.72,9.34,7,3.78.28-5.57,1.13-7.55,1.79-8.59a74.34,74.34,0,0,1,5.19-5.38s1.18-6-2.55-2.73C574.89,286.22,567,289.78,563.66,283Z" transform="translate(0 0)"/><path class="cls-43" d="M586,338.93h3.23a1.22,1.22,0,0,1,1.22,1.22v5.36a1.54,1.54,0,0,1-1.54,1.54H586a1.22,1.22,0,0,1-1.22-1.22v-5.68A1.22,1.22,0,0,1,586,338.93Z"/><path class="cls-43" d="M545.44,337.8h2.91a1.54,1.54,0,0,1,1.54,1.54v5.36a1.22,1.22,0,0,1-1.22,1.22h-3.23a1.22,1.22,0,0,1-1.22-1.22V339a1.22,1.22,0,0,1,1.22-1.22Z" transform="translate(1094.11 683.71) rotate(180)"/><path class="cls-60" d="M550.64,353.78l-21.89-4.66s-12.7,1.51-6.41,10.69c8.55,5.66,37.35,24.15,37.35,24.15l17.11-7s32.33-21.13,32.45-21.51S616.93,342.14,603,343c0-.16-25.53,10.53-25.53,10.53Z" transform="translate(0 0)"/><path class="cls-61" d="M560.07,384.56s-.56-3.78,1.79-4.06,10.95-4.81,10.95-4.81,3.2-.29,1.51,4.43a35.91,35.91,0,0,1-2.65,5.62,3.79,3.79,0,0,1-4.7,1.6Z" transform="translate(0 0)"/><path class="cls-61" d="M545.64,374.59s-5.85,5-3.21,6.51,12.64-.56,12.64-.56Z" transform="translate(0 0)"/><g class="cls-8"><polygon class="cls-59" points="496.57 333.28 496.5 358.55 472.49 372.5 472.56 347.23 496.57 333.28"/><polygon class="cls-62" points="472.56 347.23 472.49 372.5 448.32 358.55 448.4 333.28 472.56 347.23"/><polygon class="cls-63" points="496.57 333.28 472.56 347.23 448.4 333.28 472.4 319.33 496.57 333.28"/></g><polygon class="cls-63" points="637.56 580.38 566.06 627.38 566.06 540.38 637.56 493.38 637.56 580.38"/><polyline class="cls-64" points="566.06 540.38 637.56 493.38 637.56 580.38"/><ellipse class="cls-65" cx="491.56" cy="621.88" rx="8" ry="11"/><ellipse class="cls-65" cx="491.56" cy="576.88" rx="8" ry="11"/><ellipse class="cls-65" cx="491.56" cy="531.88" rx="8" ry="11"/><ellipse class="cls-65" cx="491.56" cy="486.88" rx="8" ry="11"/><polygon class="cls-66" points="524.56 451.88 371.56 367.88 371.56 355.88 524.56 439.88 524.56 451.88"/><polygon class="cls-67" points="524.56 478.88 371.56 394.88 371.56 382.88 524.56 466.88 524.56 478.88"/></g></g></svg>