<svg xmlns="http://www.w3.org/2000/svg" xmlns:xlink="http://www.w3.org/1999/xlink" viewBox="0 0 936.07 856.01"><defs><style>.cls-1{fill:none;}.cls-2{fill:url(#未命名的渐变_25);}.cls-3{fill:url(#未命名的渐变_25-2);}.cls-4{fill:url(#未命名的渐变_22);}.cls-5{fill:#f5222d;}.cls-6{fill:url(#未命名的渐变_22-2);}.cls-7{fill:url(#未命名的渐变_25-3);}.cls-8{isolation:isolate;}.cls-9{clip-path:url(#clip-path);}.cls-10{fill:#ccc;}.cls-11{fill:#c7c7c7;}.cls-12{fill:#c2c2c2;}.cls-13{fill:#bdbdbd;}.cls-14{fill:#b8b8b8;}.cls-15{fill:#b3b3b3;}.cls-16{fill:#adadad;}.cls-17{fill:#a8a8a8;}.cls-18{fill:#a3a3a3;}.cls-19{fill:#9e9e9e;}.cls-20{fill:#999;}.cls-21{fill:#949494;}.cls-22{fill:#8f8f8f;}.cls-23{fill:#8a8a8a;}.cls-24{fill:#858585;}.cls-25{fill:#cf1322;}.cls-26{fill:#fff;}.cls-27{fill:#ffccc7;}.cls-28{fill:#dedede;}.cls-29{clip-path:url(#clip-path-2);}.cls-30{fill:#ff4d4f;}.cls-31{clip-path:url(#clip-path-3);}.cls-32{fill:#fafafa;}.cls-33{fill:#f5f5f5;}.cls-34{fill:#f0f0f0;}.cls-35{fill:#ebebeb;}.cls-36{fill:#e6e6e6;}.cls-37{fill:#e0e0e0;}.cls-38{fill:#dbdbdb;}.cls-39{fill:#d6d6d6;}.cls-40{fill:#d1d1d1;}.cls-41{clip-path:url(#clip-path-4);}.cls-42{fill:url(#未命名的渐变_34);}.cls-43{fill:url(#未命名的渐变_34-2);}.cls-44{fill:url(#未命名的渐变_34-3);}.cls-45{fill:url(#未命名的渐变_34-4);}.cls-46{fill:url(#未命名的渐变_34-5);}.cls-47{clip-path:url(#clip-path-5);}.cls-48{fill:url(#未命名的渐变_29);}.cls-49{fill:url(#未命名的渐变_29-2);}.cls-50{fill:url(#未命名的渐变_29-3);}.cls-51{fill:url(#未命名的渐变_29-4);}.cls-52{fill:url(#未命名的渐变_29-5);}.cls-53{fill:url(#未命名的渐变_7);}.cls-54{fill:#fcee21;}.cls-55{fill:#f7931e;}.cls-56{fill:#fbb03b;}.cls-57{fill:#ebbbb7;}.cls-58{fill:#2b304f;}</style><linearGradient id="未命名的渐变_25" x1="876.38" y1="8.69" x2="1227.33" y2="8.69" gradientTransform="translate(-583.06 627.14) rotate(-10.22)" gradientUnits="userSpaceOnUse"><stop offset="0" stop-color="#fcbd60"/><stop offset="1" stop-color="#ff2a9d"/></linearGradient><linearGradient id="未命名的渐变_25-2" x1="633.22" y1="59.37" x2="1062.08" y2="59.37" xlink:href="#未命名的渐变_25"/><linearGradient id="未命名的渐变_22" x1="587.83" y1="55.72" x2="976.67" y2="55.72" gradientTransform="translate(-583.06 627.14) rotate(-10.22)" gradientUnits="userSpaceOnUse"><stop offset="0" stop-color="#ffe496"/><stop offset="1" stop-color="#ff446f"/></linearGradient><linearGradient id="未命名的渐变_22-2" x1="534.15" y1="511.15" x2="803.61" y2="511.15" gradientTransform="matrix(1, 0, 0, 1, 0, 0)" xlink:href="#未命名的渐变_22"/><linearGradient id="未命名的渐变_25-3" x1="478.49" y1="606.15" x2="778.71" y2="606.15" gradientTransform="matrix(1, 0, 0, 1, 0, 0)" xlink:href="#未命名的渐变_25"/><clipPath id="clip-path" transform="translate(0 0)"><path class="cls-1" d="M542.78,467.79l-141,81.91c-17,9.91-38.84,7.91-64.29-6.78l141-81.92C503.94,475.7,525.74,477.69,542.78,467.79Z"/></clipPath><clipPath id="clip-path-2" transform="translate(0 0)"><polygon class="cls-1" points="533.23 774.42 674.19 692.5 689.11 774.09 548.15 856.01 533.23 774.42"/></clipPath><clipPath id="clip-path-3" transform="translate(0 0)"><path class="cls-1" d="M388.51,646l141-81.92c19.67,48.85,58.61,86.73,97.58,109.23,18.62,10.75,34.91,16.81,47.14,19.19l-141,81.92C521,772,504.71,766,486.09,755.23,447.12,732.73,408.18,694.85,388.51,646Z"/></clipPath><clipPath id="clip-path-4" transform="translate(0 0)"><path class="cls-1" d="M272.57,188l141-81.92c-24.8,14.41-39.07,54-39.25,116.65C374,333.7,414.5,424.06,478.49,461l-141,81.92C273.54,506,233,415.62,233.32,304.66,233.5,242,247.78,202.41,272.57,188Z"/></clipPath><linearGradient id="未命名的渐变_34" x1="346.09" y1="295.83" x2="464.39" y2="295.83" gradientUnits="userSpaceOnUse"><stop offset="0" stop-color="#fff"/><stop offset="1" stop-color="#ffccc7"/></linearGradient><linearGradient id="未命名的渐变_34-2" x1="317.89" y1="312.22" x2="436.2" y2="312.22" xlink:href="#未命名的渐变_34"/><linearGradient id="未命名的渐变_34-3" x1="289.7" y1="328.6" x2="408.01" y2="328.6" xlink:href="#未命名的渐变_34"/><linearGradient id="未命名的渐变_34-4" x1="261.51" y1="344.98" x2="379.82" y2="344.98" xlink:href="#未命名的渐变_34"/><linearGradient id="未命名的渐变_34-5" x1="233.32" y1="361.37" x2="351.62" y2="361.37" xlink:href="#未命名的渐变_34"/><clipPath id="clip-path-5" transform="translate(0 0)"><path class="cls-1" d="M205.54,93.24l141-81.92C380.08-8.19,426-2.5,479.72,28.52,593.73,94.35,672,233.94,671.54,394.36c-.24,85.95-23.06,141-61.69,163.41l-141,81.92c38.63-22.45,61.45-77.46,61.69-163.41.46-160.42-77.8-300-191.82-365.84C285,79.42,239.12,73.73,205.54,93.24Z"/></clipPath><linearGradient id="未命名的渐变_29" x1="332.41" y1="282.98" x2="671.54" y2="282.98" gradientUnits="userSpaceOnUse"><stop offset="0" stop-color="#cf1322"/><stop offset="1" stop-color="#ff4d4f"/></linearGradient><linearGradient id="未命名的渐变_29-2" x1="304.22" y1="299.37" x2="643.35" y2="299.37" xlink:href="#未命名的渐变_29"/><linearGradient id="未命名的渐变_29-3" x1="276.02" y1="315.75" x2="615.16" y2="315.75" xlink:href="#未命名的渐变_29"/><linearGradient id="未命名的渐变_29-4" x1="247.83" y1="332.13" x2="586.97" y2="332.13" xlink:href="#未命名的渐变_29"/><linearGradient id="未命名的渐变_29-5" x1="219.64" y1="348.52" x2="558.78" y2="348.52" xlink:href="#未命名的渐变_29"/><linearGradient id="未命名的渐变_7" x1="548.15" y1="468.96" x2="145.48" y2="468.96" gradientUnits="userSpaceOnUse"><stop offset="0" stop-color="#f5222d"/><stop offset="1" stop-color="#cf1322"/></linearGradient></defs><g id="图层_2" data-name="图层 2"><g id="图层_1-2" data-name="图层 1"><path class="cls-2" d="M593.44,235.41A14.15,14.15,0,1,0,579.6,252c5.59,78.27-24.91,122.88-52.24,146.77a161.47,161.47,0,0,1-38.13,24.63c-.48-1.46-2.08-2.88-4.5-4.05,64.85-58.25,56.8-149.63,52.06-179.52a14.17,14.17,0,1,0-2.82.23c4.68,29.31,13,120.65-52.18,178.12a38.35,38.35,0,0,0-12.42-1.69c33.05-55.57,24.2-150.78,21-177a12.72,12.72,0,1,0-2.8.44c3.25,26.38,12.16,122.37-21.62,176.79-1.2.12-2.41.27-3.63.49-1,.17-1.93.39-2.87.62l-41.68-156.6a14.17,14.17,0,1,0-2.82.38l41.78,157a42.48,42.48,0,0,0-7.49,3.17C405.44,408,377.35,320.3,367.61,284.63a14.17,14.17,0,1,0-2.88.44c9.48,35.39,36.87,122,81.34,138.62a22.47,22.47,0,0,0-5.21,4.73c-74.72-7.32-108.93-85.27-119.47-115.61a12.6,12.6,0,1,0-2.86.91l.16-.05c10.67,30.65,45.19,109.25,120.7,117.43a3.7,3.7,0,0,0-.16,1.78,4.44,4.44,0,0,0,2.63,2.93c-67,13.9-109.14-13.13-133-39.08-17.95-19.54-28.43-41.26-33.52-53.89a13.59,13.59,0,1,0-2.42,1.55c5.25,12.92,15.84,34.62,33.79,54.18,23.73,25.87,65.15,52.83,130.52,41.05,3.36-.61,6.81-1.36,10.3-2.17a58.55,58.55,0,0,0,17.44-.6C515.82,618.49,484.37,665.67,484,666.13l3.43,2.5,3.4,2.54c1.46-1.95,34.63-49.39-17.59-236.2,7.32-2.13,12.9-5.12,15.1-8A164.76,164.76,0,0,0,529.12,401c27.88-24.32,59-69.73,53.3-149.28A14.13,14.13,0,0,0,593.44,235.41Z" transform="translate(0 0)"/><path class="cls-3" d="M388.87,614.79c1.28-8.86,14.21-160.78-61.18-52.24,0,0-20.82,44,9.95,119,12.6,38-94.15-11.79-66.89-131.74S178.17,339.3,157.07,397.74,202.4,553.5,222.35,584.41s14.56,80.78-26.9,42.23S109.58,501.21,100.86,405,35.54,250,21.61,252.49-4.74,265.86,1.79,302.07c0,0,92.64,560.63,491.32,517.41A6.82,6.82,0,0,0,497.33,808a66.16,66.16,0,0,1-18.06-42.73c-2.46-45.57,9.46-59.22,22.65-81.73s-34.55-80-50.86-11-4.44,87.08-41.65,88-21.82-137-20.54-145.84,17.46-158.44-61.18-52.24" transform="translate(0 0)"/><path class="cls-4" d="M263.91,588.41a7.93,7.93,0,0,1-8.13,5.35c-3.67-.41-7.78-3.27-9.54-13-3.1-17.21-12.54-156.66-14.7-189A46.49,46.49,0,0,0,228,376.9c-6.49-15.54-22.59-45.32-41.46-15.47-22,34.78,25.52,187.8,35.92,220.11a9.74,9.74,0,0,1-6.92,12.57c-5.22,1.14-13.3.31-25.55-6.11-24-12.57-73.93-79.21-89.36-100.31A39.9,39.9,0,0,0,80.84,473c-9.66-3.09-21.31-2.25-26.59,15.78C48.9,507,45.84,522,75.93,545.3c24.19,18.76,75.88,38.09,92.55,66.72S143.13,631,143.13,631,27.53,579.9,15.33,608c-6.09,14,.79,24.31,9.19,31.06a47.73,47.73,0,0,0,28.73,10.11c23.48.62,79.75,4.19,94.63,24.1,21.44,28.67,90.27,70,137.39,44.25s-6-65.07,46-111.82,90.83-134.28,14.07-97.44C287,536.23,268.43,576.12,263.91,588.41Z" transform="translate(0 0)"/><path class="cls-5" d="M671.15,669.2S815.57,546.65,880.93,407.43a28.12,28.12,0,0,1,8-10.15c13.72-10.81,48.26-31.59,47.11,34.59C934.49,441.8,922.15,569.69,671.15,669.2Z" transform="translate(0 0)"/><path class="cls-6" d="M599.1,574.53c-1.78-5.33-26.7-97.83,32-39.12,0,0,17.78,24.9,7.11,74.69-3.56,24.89,56.91-17.78,26.68-88.92s33.78-140.48,53.34-106.69-10.67,101.36-19.56,122.7,0,51.57,21.34,23.12,39.12-87.14,33.79-147.6,23.12-103.14,32-103.14S803.6,314.9,803.6,338c0,0,5.2,357-246.15,374.7a4.29,4.29,0,0,1-3.88-6.62A41.57,41.57,0,0,0,560,677.67c-3.56-28.45-12.45-35.56-23.12-48s12.45-53.35,30.23-12.45,12.45,53.35,35.57,49.79-1.78-87.13-3.56-92.47-28.45-96,32-39.12" transform="translate(0 0)"/><path class="cls-7" d="M647.91,685s33.79-19.56,65.8-16,80-14.23,60.46-33.79C755,616,703.54,622.43,683,642.71a3.49,3.49,0,0,1-4.17.7c-1.13-.66-1.6-2,1.08-4.68,5.34-5.34,58.69-39.13,21.34-58.69-33-17.27-52.08,41.71-56.1,55.75a4.82,4.82,0,0,1-5,3.6c-2-.22-3.77-1.55-2.89-6,2.47-12.33,10.67-40.9,19.57-56.9,6.22-11.21,0-56.91-23.12-48S599.9,580,599.9,606.72c0,10.67-8.89-7.12-8.89-7.12S560.78,516,546.55,546.26s8.78,81.69,23.12,96c5.33,5.34-8.89,1.78-8.89,1.78s-72.91-17.78-81.8,14.23S585.67,651.17,635.47,685Z" transform="translate(0 0)"/><g class="cls-8"><g class="cls-8"><g class="cls-9"><g class="cls-8"><path class="cls-10" d="M337.53,542.92l141-81.92c1.07.62,2.13,1.22,3.19,1.79l-141,81.92c-1.06-.58-2.12-1.17-3.19-1.79" transform="translate(0 0)"/><path class="cls-11" d="M340.72,544.71l141-81.92q2.06,1.11,4.08,2.12l-141,81.91c-1.35-.66-2.71-1.37-4.08-2.11" transform="translate(0 0)"/><path class="cls-12" d="M344.8,546.82l141-81.91c1.32.65,2.64,1.27,3.94,1.85l-141,81.92c-1.3-.58-2.61-1.2-3.94-1.86" transform="translate(0 0)"/><path class="cls-13" d="M348.74,548.68l141-81.92c1.27.57,2.53,1.11,3.77,1.61l-141,81.91c-1.24-.5-2.5-1-3.77-1.6" transform="translate(0 0)"/><path class="cls-14" d="M352.51,550.28l141-81.91c1.25.5,2.49,1,3.72,1.4l-141,81.91c-1.23-.43-2.47-.9-3.72-1.4" transform="translate(0 0)"/><path class="cls-15" d="M356.23,551.68l141-81.91c1.23.43,2.46.83,3.67,1.2l-141,81.91c-1.21-.36-2.44-.76-3.67-1.2" transform="translate(0 0)"/><path class="cls-16" d="M359.9,552.88l141-81.91c1.21.36,2.42.7,3.61,1l-141,81.92c-1.19-.3-2.39-.63-3.61-1" transform="translate(0 0)"/><path class="cls-17" d="M363.51,553.88l141-81.92c1.24.32,2.48.59,3.7.83l-141,81.91c-1.22-.23-2.46-.51-3.7-.82" transform="translate(0 0)"/><path class="cls-18" d="M367.21,554.7l141-81.91c1.25.24,2.48.44,3.7.6l-141,81.92c-1.22-.16-2.45-.37-3.7-.61" transform="translate(0 0)"/><path class="cls-19" d="M370.91,555.31l141-81.92c1.3.18,2.58.31,3.85.39l-141,81.92c-1.27-.09-2.55-.22-3.85-.39" transform="translate(0 0)"/><path class="cls-20" d="M374.76,555.7l141-81.92c1.37.1,2.72.14,4.06.13l-141,81.92c-1.34,0-2.69,0-4.06-.13" transform="translate(0 0)"/><path class="cls-21" d="M378.82,555.83l141-81.92q2.24,0,4.41-.21l-141,81.91c-1.45.14-2.92.21-4.41.22" transform="translate(0 0)"/><path class="cls-22" d="M383.23,555.61l141-81.91c1.62-.16,3.21-.39,4.78-.7L388,554.92a47,47,0,0,1-4.78.69" transform="translate(0 0)"/><path class="cls-23" d="M388,554.92,529,473a43.78,43.78,0,0,0,6.3-1.73l-141,81.92a44.74,44.74,0,0,1-6.3,1.73" transform="translate(0 0)"/><path class="cls-24" d="M394.31,553.19l141-81.92a44.41,44.41,0,0,0,7.51-3.48l-141,81.91a44.45,44.45,0,0,1-7.51,3.49" transform="translate(0 0)"/></g><path class="cls-25" d="M528.69,476c-17.05,9.9-38.84,7.91-64.29-6.78L478.5,461c25.44,14.69,47.24,16.68,64.28,6.78L528.69,476" transform="translate(0 0)"/><path class="cls-26" d="M514.59,484.17c-17.05,9.91-38.84,7.91-64.29-6.78l14.1-8.19c25.45,14.69,47.24,16.68,64.29,6.78l-14.1,8.19" transform="translate(0 0)"/><path class="cls-25" d="M500.49,492.36c-17,9.91-38.84,7.91-64.28-6.78l14.09-8.19c25.45,14.69,47.24,16.69,64.29,6.78l-14.1,8.19" transform="translate(0 0)"/><path class="cls-27" d="M486.4,500.55c-17,9.91-38.84,7.91-64.29-6.77l14.1-8.2c25.44,14.69,47.24,16.69,64.28,6.78l-14.09,8.19" transform="translate(0 0)"/><path class="cls-25" d="M472.3,508.74c-17,9.91-38.84,7.92-64.28-6.77l14.09-8.19c25.45,14.68,47.24,16.68,64.29,6.77l-14.1,8.19" transform="translate(0 0)"/><path class="cls-27" d="M458.21,516.94c-17,9.9-38.84,7.91-64.29-6.78L408,502c25.44,14.69,47.24,16.68,64.28,6.77l-14.09,8.2" transform="translate(0 0)"/><path class="cls-25" d="M444.11,525.13c-17,9.9-38.84,7.91-64.29-6.78l14.1-8.19c25.45,14.69,47.24,16.68,64.29,6.78l-14.1,8.19" transform="translate(0 0)"/><path class="cls-27" d="M430,533.32c-17,9.9-38.84,7.91-64.29-6.78l14.09-8.19c25.45,14.69,47.25,16.68,64.29,6.78L430,533.32" transform="translate(0 0)"/><path class="cls-25" d="M415.92,541.51c-17.05,9.91-38.84,7.91-64.29-6.78l14.1-8.19c25.45,14.69,47.24,16.68,64.29,6.78l-14.1,8.19" transform="translate(0 0)"/><path class="cls-27" d="M401.82,549.7c-17,9.91-38.84,7.91-64.28-6.78l14.09-8.19c25.45,14.69,47.24,16.69,64.29,6.78l-14.1,8.19" transform="translate(0 0)"/></g></g><polygon class="cls-28" points="533.23 774.42 674.19 692.5 689.11 774.09 548.15 856.01 533.23 774.42"/><g class="cls-8"><g class="cls-29"><polyline class="cls-30" points="689.11 774.09 674.19 692.5 660.09 700.69 675.01 782.28 689.11 774.09"/><polyline class="cls-26" points="675.01 782.28 660.09 700.69 646 708.88 660.91 790.47 675.01 782.28"/><polyline class="cls-30" points="660.91 790.47 646 708.88 631.9 717.07 646.82 798.66 660.91 790.47"/><polyline class="cls-26" points="646.82 798.66 631.9 717.07 617.8 725.27 632.72 806.86 646.82 798.66"/><polyline class="cls-30" points="632.72 806.86 617.8 725.27 603.71 733.46 618.63 815.05 632.72 806.86"/><polyline class="cls-26" points="618.63 815.05 603.71 733.46 589.62 741.65 604.53 823.24 618.63 815.05"/><polyline class="cls-30" points="604.53 823.24 589.62 741.65 575.52 749.84 590.44 831.43 604.53 823.24"/><polyline class="cls-26" points="590.44 831.43 575.52 749.84 561.42 758.03 576.34 839.62 590.44 831.43"/><polyline class="cls-30" points="576.34 839.62 561.42 758.03 547.33 766.23 562.24 847.82 576.34 839.62"/><polyline class="cls-26" points="562.24 847.82 547.33 766.23 533.23 774.42 548.15 856 562.24 847.82"/></g></g><g class="cls-8"><g class="cls-31"><g class="cls-8"><path class="cls-32" d="M388.51,646l141-81.92c.26.65.52,1.29.79,1.93l-141,81.92c-.27-.64-.53-1.29-.79-1.93" transform="translate(0 0)"/><path class="cls-26" d="M389.3,647.93l141-81.92c.54,1.31,1.1,2.61,1.67,3.9L391,651.83c-.57-1.29-1.13-2.59-1.67-3.9" transform="translate(0 0)"/><path class="cls-26" d="M391,651.83l141-81.92c.6,1.35,1.21,2.7,1.83,4l-141,81.92c-.62-1.34-1.23-2.68-1.83-4" transform="translate(0 0)"/><path class="cls-26" d="M392.8,655.86l141-81.92c.65,1.37,1.3,2.73,2,4.07l-141,81.92c-.67-1.35-1.32-2.71-2-4.07" transform="translate(0 0)"/><path class="cls-26" d="M394.77,659.93l141-81.92c.85,1.7,1.71,3.37,2.6,5L397.37,665c-.89-1.66-1.75-3.34-2.6-5" transform="translate(0 0)"/><path class="cls-26" d="M397.37,665l141-81.92q2,3.69,4.07,7.28l-141,81.91q-2.1-3.59-4.07-7.27" transform="translate(0 0)"/><path class="cls-26" d="M401.44,672.23l141-81.91q3.3,5.59,6.91,10.95l-141,81.91q-3.62-5.34-6.91-10.95" transform="translate(0 0)"/><path class="cls-26" d="M408.35,683.18l141-81.91q2.66,3.94,5.47,7.75l-141,81.91q-2.82-3.79-5.47-7.75" transform="translate(0 0)"/><path class="cls-26" d="M413.82,690.93l141-81.91c1.34,1.81,2.7,3.59,4.09,5.36l-141,81.91q-2.09-2.64-4.09-5.36" transform="translate(0 0)"/><path class="cls-26" d="M417.91,696.29l141-81.91c1.28,1.62,2.58,3.23,3.89,4.81L421.81,701.11c-1.32-1.59-2.62-3.19-3.9-4.82" transform="translate(0 0)"/><path class="cls-26" d="M421.81,701.11l141-81.92c1.31,1.57,2.63,3.11,4,4.64l-141,81.92q-2-2.29-4-4.64" transform="translate(0 0)"/><path class="cls-26" d="M425.77,705.75l141-81.92c1.4,1.59,2.81,3.15,4.24,4.7L430,710.44q-2.14-2.31-4.24-4.69" transform="translate(0 0)"/><path class="cls-32" d="M430,710.44l141-81.91c1.53,1.65,3.09,3.28,4.66,4.88l-141,81.92c-1.57-1.61-3.12-3.23-4.66-4.89" transform="translate(0 0)"/><path class="cls-33" d="M434.67,715.33l141-81.92c1.68,1.72,3.39,3.4,5.11,5.05l-141,81.92c-1.72-1.65-3.42-3.34-5.11-5" transform="translate(0 0)"/><path class="cls-34" d="M439.78,720.38l141-81.92c1.84,1.77,3.7,3.49,5.57,5.18l-141,81.92q-2.81-2.53-5.57-5.18" transform="translate(0 0)"/><path class="cls-35" d="M445.35,725.56l141-81.92c2,1.78,4,3.51,6,5.21l-141,81.91c-2-1.69-4-3.43-6-5.2" transform="translate(0 0)"/><path class="cls-36" d="M451.32,730.76l141-81.91q3.12,2.63,6.28,5.12l-141,81.92q-3.17-2.5-6.28-5.13" transform="translate(0 0)"/><path class="cls-37" d="M457.6,735.89l141-81.92q3.24,2.55,6.51,5l-141,81.91q-3.27-2.4-6.51-5" transform="translate(0 0)"/><path class="cls-38" d="M464.11,740.84l141-81.91c2.21,1.63,4.44,3.21,6.67,4.74l-141,81.91c-2.23-1.53-4.46-3.11-6.67-4.74" transform="translate(0 0)"/><path class="cls-39" d="M470.78,745.58l141-81.91c2.26,1.54,4.52,3,6.79,4.48L477.58,750.07c-2.28-1.45-4.54-2.94-6.8-4.49" transform="translate(0 0)"/><path class="cls-40" d="M477.58,750.07l141-81.92c2.3,1.46,4.61,2.87,6.91,4.23l-141,81.92c-2.3-1.36-4.61-2.77-6.9-4.23" transform="translate(0 0)"/><path class="cls-10" d="M484.48,754.3l141-81.92c.54.31,1.07.63,1.61.93,1.87,1.09,3.73,2.12,5.55,3.11l-141,81.92c-1.83-1-3.69-2-5.56-3.11l-1.61-.93" transform="translate(0 0)"/><path class="cls-11" d="M491.65,758.34l141-81.92c2.38,1.29,4.71,2.49,7,3.62L498.63,762q-3.42-1.69-7-3.62" transform="translate(0 0)"/><path class="cls-12" d="M498.63,762l141-81.92c2.28,1.13,4.52,2.18,6.7,3.16l-141,81.92c-2.18-1-4.42-2-6.7-3.16" transform="translate(0 0)"/><path class="cls-13" d="M505.33,765.12l141-81.92q3.27,1.47,6.38,2.71l-141,81.92q-3.1-1.26-6.38-2.71" transform="translate(0 0)"/><path class="cls-14" d="M511.71,767.83l141-81.92q3.09,1.23,6,2.27l-141,81.91c-2-.68-4-1.44-6-2.26" transform="translate(0 0)"/><path class="cls-15" d="M517.73,770.09l141-81.91c1.93.67,3.8,1.29,5.61,1.84l-141,81.91q-2.72-.82-5.61-1.84" transform="translate(0 0)"/><path class="cls-16" d="M523.34,771.93,664.3,690q2.67.79,5.17,1.43l-141,81.91c-1.66-.41-3.39-.89-5.17-1.43" transform="translate(0 0)"/><path class="cls-17" d="M528.51,773.36l141-81.91c1.62.4,3.18.75,4.69,1l-141,81.92c-1.51-.29-3.07-.64-4.69-1" transform="translate(0 0)"/><path class="cls-18" d="M533.2,774.41l141-81.92h0l-141,81.92h0" transform="translate(0 0)"/></g><path class="cls-25" d="M674.19,692.5c-12.23-2.38-28.53-8.44-47.14-19.18-39-22.5-77.91-60.39-97.58-109.24l-14.1,8.19C535.05,621.13,574,659,613,681.51c18.62,10.75,34.92,16.8,47.14,19.18l14.1-8.19" transform="translate(0 0)"/><path class="cls-26" d="M660.09,700.69c-12.22-2.38-28.52-8.43-47.14-19.18-39-22.5-77.9-60.38-97.58-109.24l-14.1,8.2C521,629.32,559.88,667.2,598.85,689.7c18.62,10.75,34.92,16.8,47.15,19.18l14.09-8.19" transform="translate(0 0)"/><path class="cls-25" d="M646,708.88c-12.23-2.38-28.53-8.43-47.15-19.18-39-22.5-77.9-60.38-97.58-109.23l-14.09,8.19c19.67,48.85,58.61,86.73,97.58,109.23,18.62,10.75,34.91,16.8,47.14,19.18l14.1-8.19" transform="translate(0 0)"/><path class="cls-26" d="M631.9,717.07c-12.23-2.38-28.52-8.43-47.14-19.18-39-22.5-77.91-60.38-97.58-109.23l-14.1,8.19c19.68,48.85,58.61,86.73,97.58,109.23,18.62,10.75,34.92,16.81,47.14,19.19l14.1-8.2" transform="translate(0 0)"/><path class="cls-25" d="M617.8,725.27c-12.22-2.38-28.52-8.44-47.14-19.19-39-22.5-77.9-60.38-97.58-109.23L459,605c19.67,48.85,58.61,86.73,97.58,109.23,18.62,10.75,34.91,16.81,47.14,19.19l14.09-8.19" transform="translate(0 0)"/><path class="cls-26" d="M603.71,733.46c-12.23-2.38-28.52-8.44-47.14-19.19-39-22.5-77.91-60.38-97.58-109.23l-14.1,8.19c19.68,48.85,58.61,86.73,97.58,109.23,18.62,10.75,34.92,16.81,47.14,19.19l14.1-8.19" transform="translate(0 0)"/><path class="cls-25" d="M589.61,741.65c-12.22-2.38-28.52-8.44-47.14-19.19-39-22.5-77.9-60.38-97.58-109.23l-14.09,8.19c19.67,48.86,58.6,86.74,97.58,109.24,18.61,10.75,34.91,16.8,47.14,19.18l14.09-8.19" transform="translate(0 0)"/><path class="cls-26" d="M575.52,749.84c-12.23-2.38-28.53-8.43-47.14-19.18-39-22.5-77.91-60.38-97.58-109.24l-14.1,8.2c19.68,48.85,58.61,86.73,97.58,109.23,18.62,10.75,34.92,16.8,47.14,19.18l14.1-8.19" transform="translate(0 0)"/><path class="cls-25" d="M561.42,758c-12.22-2.38-28.52-8.43-47.14-19.18-39-22.5-77.9-60.38-97.58-109.23l-14.1,8.19c19.68,48.85,58.61,86.73,97.58,109.23,18.62,10.75,34.92,16.81,47.14,19.18l14.1-8.19" transform="translate(0 0)"/><path class="cls-26" d="M547.32,766.22c-12.22-2.37-28.52-8.43-47.14-19.18-39-22.5-77.9-60.38-97.58-109.23L388.51,646c19.67,48.85,58.61,86.73,97.58,109.23C504.71,766,521,772,533.23,774.42l14.09-8.2" transform="translate(0 0)"/></g></g><g class="cls-8"><g class="cls-41"><g class="cls-8"><path class="cls-24" d="M272.57,188l141-81.92c-7.17,4.16-13.46,10.44-18.78,18.76l-141,81.92c5.32-8.33,11.61-14.6,18.78-18.76" transform="translate(0 0)"/><path class="cls-23" d="M253.79,206.77l141-81.92a86,86,0,0,0-5.21,9.45l-141,81.92a86,86,0,0,1,5.21-9.45" transform="translate(0 0)"/><path class="cls-22" d="M248.58,216.22l141-81.92c-1.34,2.82-2.61,5.82-3.78,9l-141,81.92q1.77-4.74,3.78-9" transform="translate(0 0)"/><path class="cls-21" d="M244.8,225.2l141-81.92q-1.62,4.36-3,9.16l-141,81.91q1.4-4.78,3-9.15" transform="translate(0 0)"/><path class="cls-20" d="M241.78,234.35l141-81.91q-1.35,4.59-2.48,9.58l-141,81.92q1.14-5,2.48-9.59" transform="translate(0 0)"/><path class="cls-19" d="M239.3,243.94l141-81.92q-1.12,4.9-2,10.19l-141,81.92q.9-5.28,2-10.19" transform="translate(0 0)"/><path class="cls-18" d="M237.27,254.13l141-81.92c-.6,3.52-1.15,7.17-1.62,10.93l-141,81.92q.71-5.65,1.62-10.93" transform="translate(0 0)"/><path class="cls-17" d="M235.65,265.06l141-81.92q-.71,5.72-1.21,11.81l-141,81.92q.49-6.09,1.22-11.81" transform="translate(0 0)"/><path class="cls-16" d="M234.43,276.87l141-81.92q-.51,6.23-.78,12.84l-141,81.92q.27-6.61.78-12.84" transform="translate(0 0)"/><path class="cls-15" d="M233.65,289.71l141-81.92q-.28,6.84-.33,14.1l-141,81.92q0-7.26.33-14.1" transform="translate(0 0)"/><path class="cls-14" d="M233.32,303.81l141-81.92v.85q0,7.35.2,14.57l-141,81.92q-.22-7.23-.2-14.57v-.85" transform="translate(0 0)"/><path class="cls-13" d="M233.52,319.23l141-81.92q.21,7.22.66,14.3l-141,81.92q-.45-7.09-.66-14.3" transform="translate(0 0)"/><path class="cls-12" d="M234.18,333.53l141-81.92q.42,6.69,1.05,13.27l-141,81.91q-.63-6.57-1-13.26" transform="translate(0 0)"/><path class="cls-11" d="M235.23,346.79l141-81.91q.58,6.24,1.37,12.37l-141,81.92q-.78-6.14-1.37-12.38" transform="translate(0 0)"/><path class="cls-10" d="M236.6,359.17l141-81.92q.74,5.87,1.65,11.62l-141,81.92q-.92-5.75-1.65-11.62" transform="translate(0 0)"/><path class="cls-40" d="M238.25,370.79l141-81.92q.87,5.52,1.88,10.91l-141,81.92q-1-5.4-1.88-10.91" transform="translate(0 0)"/><path class="cls-39" d="M240.13,381.7l141-81.92q1,5.16,2.06,10.2L242.2,391.9c-.74-3.36-1.43-6.77-2.07-10.2" transform="translate(0 0)"/><path class="cls-38" d="M242.2,391.9l141-81.92q1.07,4.89,2.25,9.66l-141,81.92q-1.19-4.79-2.24-9.66" transform="translate(0 0)"/><path class="cls-37" d="M244.44,401.56l141-81.92q1.14,4.59,2.38,9.07l-141,81.92c-.83-3-1.62-6-2.38-9.07" transform="translate(0 0)"/><path class="cls-36" d="M246.82,410.63l141-81.92q1.16,4.16,2.4,8.24l-141,81.91c-.83-2.71-1.63-5.46-2.4-8.23" transform="translate(0 0)"/><path class="cls-35" d="M249.22,418.86l141-81.91c.8,2.63,1.64,5.24,2.5,7.82l-141,81.91c-.86-2.58-1.69-5.18-2.5-7.82" transform="translate(0 0)"/><path class="cls-34" d="M251.72,426.68l141-81.91q1.17,3.48,2.4,6.89l-141,81.92q-1.23-3.42-2.4-6.9" transform="translate(0 0)"/><path class="cls-33" d="M254.12,433.58l141-81.92c.81,2.22,1.63,4.42,2.48,6.6l-141,81.92c-.85-2.18-1.67-4.38-2.48-6.6" transform="translate(0 0)"/><path class="cls-32" d="M256.6,440.18l141-81.92c.77,2,1.55,3.93,2.36,5.87L259,446c-.8-1.93-1.59-3.89-2.36-5.86" transform="translate(0 0)"/><path class="cls-26" d="M259,446l141-81.91q1.2,2.89,2.46,5.75l-141,81.91Q260.16,449,259,446" transform="translate(0 0)"/><path class="cls-26" d="M261.42,451.79l141-81.91q1.23,2.79,2.52,5.54l-141,81.92c-.85-1.83-1.7-3.68-2.52-5.55" transform="translate(0 0)"/><path class="cls-26" d="M263.94,457.34l141-81.92q1.29,2.74,2.62,5.43l-141,81.91q-1.33-2.68-2.62-5.42" transform="translate(0 0)"/><path class="cls-26" d="M266.56,462.76l141-81.91c1.13,2.27,2.29,4.5,3.47,6.71L270,469.48q-1.77-3.32-3.47-6.72" transform="translate(0 0)"/><path class="cls-26" d="M270,469.48l141-81.92q2.73,5.1,5.65,10l-141,81.92q-2.91-4.86-5.65-10" transform="translate(0 0)"/><path class="cls-26" d="M275.68,479.44l141-81.92q2.78,4.64,5.71,9l-141,81.92q-2.92-4.41-5.71-9" transform="translate(0 0)"/><path class="cls-26" d="M281.39,488.48l141-81.92q2.89,4.33,5.93,8.44l-141,81.92q-3-4.11-5.93-8.44" transform="translate(0 0)"/><path class="cls-26" d="M287.32,496.92l141-81.92c1.13,1.54,2.29,3.05,3.45,4.54l-141,81.92c-1.17-1.49-2.33-3-3.46-4.54" transform="translate(0 0)"/><path class="cls-26" d="M290.78,501.46l141-81.92q1.75,2.23,3.54,4.38l-141,81.92q-1.79-2.16-3.53-4.38" transform="translate(0 0)"/><path class="cls-26" d="M294.31,505.84l141-81.92q1.61,1.93,3.26,3.81l-141,81.91c-1.1-1.25-2.18-2.51-3.26-3.8" transform="translate(0 0)"/><path class="cls-26" d="M297.57,509.64l141-81.91q1.64,1.86,3.32,3.68l-141,81.92q-1.68-1.82-3.32-3.69" transform="translate(0 0)"/><path class="cls-32" d="M300.89,513.33l141-81.92c1.16,1.25,2.34,2.48,3.52,3.69L304.41,517c-1.18-1.21-2.36-2.44-3.52-3.69" transform="translate(0 0)"/><path class="cls-33" d="M304.41,517l141-81.92q1.81,1.84,3.67,3.62l-141,81.92c-1.23-1.18-2.46-2.39-3.67-3.62" transform="translate(0 0)"/><path class="cls-34" d="M308.08,520.64l141-81.92c1.25,1.21,2.52,2.38,3.8,3.54l-141,81.91q-1.92-1.73-3.8-3.53" transform="translate(0 0)"/><path class="cls-35" d="M311.88,524.17l141-81.91q2,1.77,4,3.46l-141,81.91c-1.34-1.12-2.66-2.28-4-3.46" transform="translate(0 0)"/><path class="cls-36" d="M315.85,527.63l141-81.91q2,1.68,4,3.29l-141,81.92q-2-1.6-4-3.3" transform="translate(0 0)"/><path class="cls-37" d="M319.89,530.93l141-81.92q2,1.59,4.07,3.11L324,534q-2.06-1.51-4.07-3.11" transform="translate(0 0)"/><path class="cls-38" d="M324,534l141-81.92c1.37,1,2.76,2,4.15,2.95L328.11,537c-1.39-1-2.78-1.94-4.15-2.94" transform="translate(0 0)"/><path class="cls-39" d="M328.11,537l141-81.91c1.38.94,2.78,1.86,4.18,2.76l-141,81.91c-1.4-.89-2.8-1.81-4.18-2.76" transform="translate(0 0)"/><path class="cls-40" d="M332.29,539.74l141-81.91c1.41.89,2.82,1.76,4.25,2.6l-141,81.91c-1.43-.84-2.84-1.7-4.25-2.6" transform="translate(0 0)"/><path class="cls-10" d="M336.54,542.34l141-81.91,1,.57-141,81.92-1-.58" transform="translate(0 0)"/></g><path class="cls-25" d="M464.39,469.19c-64-36.94-104.52-127.3-104.21-238.26.18-62.63,14.46-102.24,39.25-116.65l14.1-8.19c-24.8,14.41-39.07,54-39.25,116.65C374,333.7,414.49,424.05,478.49,461l-14.1,8.19" transform="translate(0 0)"/><path class="cls-42" d="M450.29,477.39c-64-36.95-104.52-127.3-104.2-238.27.17-62.63,14.45-102.24,39.25-116.65l14.09-8.19c-24.79,14.41-39.07,54-39.25,116.65-.31,111,40.22,201.32,104.21,238.26l-14.1,8.2" transform="translate(0 0)"/><path class="cls-25" d="M436.2,485.58c-64-36.95-104.52-127.3-104.21-238.27.18-62.63,14.46-102.24,39.25-116.65l14.1-8.19c-24.8,14.41-39.08,54-39.25,116.65-.32,111,40.21,201.32,104.2,238.27l-14.09,8.19" transform="translate(0 0)"/><path class="cls-43" d="M422.1,493.77c-64-36.95-104.52-127.3-104.21-238.26.18-62.64,14.46-102.25,39.25-116.65l14.1-8.2c-24.79,14.41-39.07,54-39.25,116.65-.31,111,40.22,201.32,104.21,238.27l-14.1,8.19" transform="translate(0 0)"/><path class="cls-25" d="M408,502C344,465,303.49,374.66,303.8,263.7c.18-62.63,14.46-102.24,39.25-116.65l14.09-8.19c-24.79,14.4-39.07,54-39.25,116.65-.31,111,40.22,201.31,104.21,238.26L408,502" transform="translate(0 0)"/><path class="cls-44" d="M393.91,510.15c-64-36.95-104.52-127.3-104.2-238.26.17-62.63,14.45-102.24,39.24-116.65l14.1-8.19c-24.79,14.41-39.07,54-39.25,116.65C303.49,374.66,344,465,408,502l-14.1,8.19" transform="translate(0 0)"/><path class="cls-25" d="M379.82,518.34c-64-36.94-104.53-127.3-104.21-238.26.18-62.63,14.45-102.24,39.25-116.65L329,155.24c-24.79,14.41-39.07,54-39.24,116.65-.32,111,40.21,201.31,104.2,238.26l-14.09,8.19" transform="translate(0 0)"/><path class="cls-45" d="M365.72,526.54c-64-36.95-104.52-127.31-104.21-238.27C261.69,225.64,276,186,300.76,171.62l14.1-8.19c-24.8,14.41-39.07,54-39.25,116.65-.32,111,40.21,201.32,104.21,238.26l-14.1,8.2" transform="translate(0 0)"/><path class="cls-25" d="M351.62,534.73c-64-37-104.52-127.3-104.2-238.26.17-62.64,14.45-102.25,39.24-116.66l14.1-8.19c-24.79,14.41-39.07,54-39.25,116.65-.31,111,40.22,201.32,104.21,238.27l-14.1,8.19" transform="translate(0 0)"/><path class="cls-46" d="M337.53,542.92C273.54,506,233,415.62,233.32,304.66,233.5,242,247.78,202.41,272.57,188l14.09-8.19c-24.79,14.41-39.07,54-39.24,116.66-.32,111,40.21,201.31,104.2,238.26l-14.09,8.19" transform="translate(0 0)"/></g></g><g class="cls-8"><g class="cls-47"><g class="cls-8"><path class="cls-24" d="M205.54,93.24l141-81.92A81.41,81.41,0,0,1,360.1,5L219.14,87a80.62,80.62,0,0,0-13.6,6.29" transform="translate(0 0)"/><path class="cls-23" d="M219.14,87,360.1,5a86,86,0,0,1,11.66-3.21L230.81,83.74A83.3,83.3,0,0,0,219.14,87" transform="translate(0 0)"/><path class="cls-22" d="M230.81,83.74l141-81.92A90.72,90.72,0,0,1,381.37.43l-141,81.91a90.54,90.54,0,0,0-9.6,1.4" transform="translate(0 0)"/><path class="cls-21" d="M240.41,82.34,381.37.43c2.91-.27,5.87-.42,8.88-.43l-141,81.92q-4.51,0-8.88.42" transform="translate(0 0)"/><path class="cls-20" d="M249.29,81.92,390.25,0c2.7,0,5.43.08,8.21.27l-141,81.92c-2.78-.19-5.51-.28-8.21-.27" transform="translate(0 0)"/><path class="cls-19" d="M257.5,82.19,398.46.27c2.61.18,5.27.45,8,.82L265.45,83q-4-.54-7.95-.81" transform="translate(0 0)"/><path class="cls-18" d="M265.45,83l141-81.91c2.6.34,5.22.78,7.88,1.3l-141,81.91c-2.66-.52-5.28-1-7.88-1.3" transform="translate(0 0)"/><path class="cls-17" d="M273.33,84.3l141-81.91c2.56.49,5.15,1.07,7.77,1.72L281.1,86q-3.93-1-7.77-1.73" transform="translate(0 0)"/><path class="cls-16" d="M281.1,86l141-81.92q3.9,1,7.87,2.18L289,88.2Q285,87,281.1,86" transform="translate(0 0)"/><path class="cls-15" d="M289,88.2l141-81.91q3.94,1.18,8,2.61L297,90.82q-4-1.42-8-2.62" transform="translate(0 0)"/><path class="cls-14" d="M297,90.82l141-81.92q4,1.42,8.13,3.06l-141,81.92Q301,92.23,297,90.82" transform="translate(0 0)"/><path class="cls-13" d="M305.08,93.88,446,12q4.2,1.68,8.48,3.6l-141,81.92q-4.28-1.92-8.48-3.6" transform="translate(0 0)"/><path class="cls-12" d="M313.56,97.48l141-81.92q4.29,1.94,8.66,4.09L322.23,101.57q-4.38-2.16-8.67-4.09" transform="translate(0 0)"/><path class="cls-11" d="M322.23,101.57l141-81.92q4.6,2.28,9.28,4.81L331.51,106.38q-4.69-2.53-9.28-4.81" transform="translate(0 0)"/><path class="cls-10" d="M331.51,106.38l141-81.92c2.41,1.3,4.82,2.66,7.26,4.06l2.22,1.3L341,111.73l-2.22-1.29c-2.44-1.41-4.85-2.76-7.25-4.06" transform="translate(0 0)"/><path class="cls-40" d="M341,111.73l141-81.91q4.81,2.84,9.54,5.83l-141,81.92q-4.72-3-9.54-5.84" transform="translate(0 0)"/><path class="cls-39" d="M350.52,117.57l141-81.92q4.72,3,9.35,6.18l-141,81.92q-4.62-3.18-9.35-6.18" transform="translate(0 0)"/><path class="cls-38" d="M359.87,123.75l141-81.92Q505.47,45,510,48.34L369,130.25q-4.53-3.33-9.16-6.5" transform="translate(0 0)"/><path class="cls-37" d="M369,130.25,510,48.34q4.56,3.34,9,6.86L378,137.12q-4.46-3.51-9-6.87" transform="translate(0 0)"/><path class="cls-36" d="M378,137.12,519,55.2q4.47,3.52,8.83,7.21l-141,81.91q-4.37-3.67-8.83-7.2" transform="translate(0 0)"/><path class="cls-35" d="M386.87,144.32l141-81.91q4.32,3.63,8.52,7.43l-141,81.91q-4.22-3.78-8.53-7.43" transform="translate(0 0)"/><path class="cls-34" d="M395.4,151.75l141-81.91c2.79,2.5,5.53,5.06,8.25,7.66l-141,81.92q-4.08-3.91-8.24-7.67" transform="translate(0 0)"/><path class="cls-33" d="M403.64,159.42l141-81.92q3.85,3.7,7.64,7.55L411.28,167q-3.78-3.84-7.64-7.55" transform="translate(0 0)"/><path class="cls-32" d="M411.28,167l141-81.92q3.71,3.78,7.32,7.68L418.61,174.64q-3.63-3.9-7.33-7.67" transform="translate(0 0)"/><path class="cls-26" d="M418.61,174.64,559.56,92.73q3.44,3.69,6.79,7.51l-141,81.92q-3.34-3.81-6.78-7.52" transform="translate(0 0)"/><path class="cls-26" d="M425.39,182.16l141-81.92q3.38,3.86,6.67,7.81L432.06,190q-3.29-4-6.67-7.8" transform="translate(0 0)"/><path class="cls-26" d="M432.06,190l141-81.91q3.39,4.08,6.69,8.27l-141,81.92c-2.19-2.8-4.43-5.56-6.69-8.28" transform="translate(0 0)"/><path class="cls-26" d="M438.75,198.24l141-81.92q3.74,4.74,7.32,9.62l-141,81.91q-3.58-4.87-7.32-9.61" transform="translate(0 0)"/><path class="cls-26" d="M446.07,207.85l141-81.91q4.69,6.36,9.16,12.95l-141,81.92q-4.46-6.6-9.16-13" transform="translate(0 0)"/><path class="cls-26" d="M455.23,220.81l141-81.92q7.17,10.58,13.74,21.72L469,242.53q-6.57-11.15-13.74-21.72" transform="translate(0 0)"/><path class="cls-26" d="M469,242.53l141-81.92q4.67,7.9,9,16.07L478,258.6q-4.35-8.18-9-16.07" transform="translate(0 0)"/><path class="cls-26" d="M478,258.6l141-81.92q2.55,4.8,5,9.68L483,268.27q-2.45-4.87-5-9.67" transform="translate(0 0)"/><path class="cls-26" d="M483,268.27l141-81.91q2.4,4.83,4.71,9.73L487.68,278c-1.53-3.27-3.11-6.52-4.71-9.74" transform="translate(0 0)"/><path class="cls-26" d="M487.68,278l141-81.92q2,4.36,4,8.8l-141,81.91q-1.95-4.43-4-8.79" transform="translate(0 0)"/><path class="cls-26" d="M491.68,286.8l141-81.91q2,4.43,3.82,8.92l-141,81.92q-1.86-4.5-3.82-8.93" transform="translate(0 0)"/><path class="cls-32" d="M495.5,295.73l141-81.92q1.95,4.69,3.8,9.45l-141,81.91q-1.85-4.76-3.8-9.44" transform="translate(0 0)"/><path class="cls-33" d="M499.3,305.17l141-81.91q1.86,4.78,3.62,9.65l-141,81.92q-1.76-4.86-3.62-9.66" transform="translate(0 0)"/><path class="cls-34" d="M502.92,314.83l141-81.92q1.89,5.22,3.66,10.51l-141,81.92q-1.77-5.29-3.66-10.51" transform="translate(0 0)"/><path class="cls-35" d="M506.58,325.34l141-81.92q1.83,5.46,3.52,11l-141,81.92q-1.69-5.54-3.52-11" transform="translate(0 0)"/><path class="cls-36" d="M510.1,336.32l141-81.92q1.8,5.85,3.44,11.8l-141,81.92q-1.65-6-3.44-11.8" transform="translate(0 0)"/><path class="cls-37" d="M513.54,348.12l141-81.92q1.68,6,3.2,12.17l-141,81.92q-1.53-6.14-3.2-12.17" transform="translate(0 0)"/><path class="cls-38" d="M516.74,360.29l141-81.92q1.57,6.4,3,12.9l-141,81.91c-.94-4.32-2-8.62-3-12.89" transform="translate(0 0)"/><path class="cls-39" d="M519.74,373.18l141-81.91q1.42,6.56,2.67,13.19l-141,81.92q-1.24-6.64-2.67-13.2" transform="translate(0 0)"/><path class="cls-40" d="M522.41,386.38l141-81.92q1.27,6.81,2.36,13.69l-141,81.92q-1.08-6.88-2.36-13.69" transform="translate(0 0)"/><path class="cls-10" d="M524.77,400.07l141-81.92q1.11,7.05,2,14.17l-141,81.92q-.9-7.12-2-14.17" transform="translate(0 0)"/><path class="cls-11" d="M526.78,414.24l141-81.92q.91,7.23,1.62,14.54l-141,81.92q-.71-7.32-1.62-14.54" transform="translate(0 0)"/><path class="cls-12" d="M528.4,428.78l141-81.92q.74,7.71,1.22,15.49l-141,81.92q-.48-7.78-1.22-15.49" transform="translate(0 0)"/><path class="cls-13" d="M529.62,444.27l141-81.92q.51,8,.75,16.16l-141,81.91q-.24-8.12-.75-16.15" transform="translate(0 0)"/><path class="cls-14" d="M530.37,460.42l141-81.91q.24,7.89.21,15.85v1l-141,81.91v-1q0-8-.21-15.86" transform="translate(0 0)"/><path class="cls-15" d="M530.58,477.29l141-81.91q0,8.63-.39,16.84l-141,81.91q.34-8.2.39-16.84" transform="translate(0 0)"/><path class="cls-16" d="M530.19,494.13l141-81.91q-.35,8.11-1,15.83L529.22,510q.63-7.71,1-15.83" transform="translate(0 0)"/><path class="cls-17" d="M529.22,510l141-81.91q-.63,7.69-1.54,15L527.68,525q.92-7.29,1.54-15" transform="translate(0 0)"/><path class="cls-18" d="M527.68,525l141-81.92q-.92,7.35-2.12,14.29l-141,81.92q1.2-6.94,2.12-14.29" transform="translate(0 0)"/><path class="cls-19" d="M525.56,539.25l141-81.92q-1.23,7.1-2.75,13.73L522.81,553q1.52-6.65,2.75-13.73" transform="translate(0 0)"/><path class="cls-20" d="M522.81,553l141-81.92q-1.57,6.92-3.46,13.34l-141,81.92q1.89-6.44,3.46-13.34" transform="translate(0 0)"/><path class="cls-21" d="M519.35,566.32l141-81.92q-2,6.89-4.36,13.2L515,579.52q2.34-6.33,4.35-13.2" transform="translate(0 0)"/><path class="cls-22" d="M515,579.52,656,497.6q-2.62,7.09-5.68,13.5L509.31,593q3-6.39,5.69-13.49" transform="translate(0 0)"/><path class="cls-23" d="M509.31,593l141-81.91a134.29,134.29,0,0,1-8.09,14.67l-141,81.92A133.53,133.53,0,0,0,509.31,593" transform="translate(0 0)"/><path class="cls-24" d="M501.22,607.69l141-81.92c-9,14.05-19.82,24.73-32.33,32l-141,81.92c12.51-7.27,23.36-18,32.33-32" transform="translate(0 0)"/></g><path class="cls-48" d="M595.75,566c38.63-22.44,61.45-77.45,61.7-163.4.45-160.43-77.81-300-191.83-365.85C411.89,5.69,366,0,332.41,19.51l14.09-8.19C380.08-8.19,426-2.5,479.72,28.52,593.73,94.35,672,233.94,671.54,394.37c-.24,85.95-23.06,141-61.69,163.4L595.75,566" transform="translate(0 0)"/><path class="cls-26" d="M581.66,574.16c38.63-22.45,61.45-77.46,61.69-163.41.45-160.43-77.81-300-191.83-365.84-53.72-31-99.63-36.72-133.21-17.2l14.1-8.2C366,0,411.89,5.69,465.62,36.71c114,65.83,192.28,205.42,191.83,365.85-.25,85.95-23.07,141-61.7,163.4l-14.09,8.2" transform="translate(0 0)"/><path class="cls-49" d="M567.56,582.35c38.63-22.45,61.45-77.46,61.7-163.41.45-160.43-77.81-300-191.83-365.84-53.73-31-99.64-36.71-133.21-17.2l14.09-8.19c33.58-19.52,79.49-13.82,133.21,17.2,114,65.82,192.28,205.41,191.83,365.84-.24,85.95-23.06,141-61.69,163.41l-14.1,8.19" transform="translate(0 0)"/><path class="cls-26" d="M553.46,590.54c38.63-22.45,61.45-77.46,61.7-163.41.45-160.42-77.81-300-191.83-365.84-53.73-31-99.64-36.71-133.21-17.2l14.1-8.19c33.57-19.51,79.48-13.82,133.21,17.2,114,65.82,192.28,205.41,191.83,365.84-.25,85.95-23.07,141-61.7,163.41l-14.1,8.19" transform="translate(0 0)"/><path class="cls-50" d="M539.37,598.73c38.63-22.45,61.45-77.46,61.69-163.41.46-160.42-77.81-300-191.82-365.84-53.73-31-99.64-36.71-133.22-17.2l14.1-8.19c33.57-19.51,79.48-13.82,133.21,17.2,114,65.83,192.28,205.42,191.83,365.84-.25,86-23.07,141-61.7,163.41l-14.09,8.19" transform="translate(0 0)"/><path class="cls-26" d="M525.27,606.92c38.64-22.45,61.46-77.46,61.7-163.41.45-160.42-77.81-300-191.83-365.84-53.73-31-99.63-36.71-133.21-17.2L276,52.28c33.58-19.51,79.49-13.82,133.22,17.2,114,65.83,192.28,205.42,191.82,365.84-.24,85.95-23.06,141-61.69,163.41l-14.1,8.19" transform="translate(0 0)"/><path class="cls-51" d="M511.18,615.12c38.63-22.45,61.45-77.46,61.69-163.41.46-160.43-77.81-300-191.82-365.85-53.73-31-99.64-36.71-133.22-17.2l14.1-8.19C295.51,41,341.41,46.65,395.14,77.67,509.16,143.5,587.42,283.09,587,443.51c-.24,86-23.06,141-61.7,163.41l-14.09,8.2" transform="translate(0 0)"/><path class="cls-26" d="M497.08,623.31c38.63-22.45,61.45-77.46,61.7-163.41C559.23,299.47,481,159.88,367,94.05c-53.73-31-99.64-36.71-133.21-17.19l14.09-8.2c33.58-19.51,79.49-13.82,133.22,17.2,114,65.83,192.28,205.42,191.82,365.85-.24,85.95-23.06,141-61.69,163.41l-14.1,8.19" transform="translate(0 0)"/><path class="cls-52" d="M483,631.5c38.64-22.45,61.46-77.46,61.7-163.41.45-160.43-77.81-300-191.83-365.84-53.73-31-99.63-36.71-133.21-17.2l14.1-8.19C267.31,57.34,313.22,63,367,94.05,481,159.88,559.23,299.47,558.78,459.9c-.25,86-23.07,141-61.7,163.41L483,631.5" transform="translate(0 0)"/><path class="cls-26" d="M468.89,639.69c38.63-22.45,61.45-77.46,61.69-163.41.46-160.42-77.8-300-191.82-365.84-53.73-31-99.64-36.71-133.21-17.2l14.09-8.19c33.58-19.51,79.48-13.82,133.21,17.2,114,65.82,192.28,205.41,191.83,365.84-.24,85.95-23.06,141-61.7,163.41l-14.09,8.19" transform="translate(0 0)"/></g></g><path class="cls-53" d="M533.23,774.42,548.15,856c-14.57-.38-40.76-8.81-72.18-27C388.13,778.35,327.21,689,297.75,597c-91.85-73.12-152.67-202-152.27-343,.46-161.09,79.26-209.33,193.28-143.5S531,315.86,530.58,476.28C530.2,611.31,474.1,670,388.51,646c19.67,48.85,58.61,86.73,97.58,109.23C504.71,766,521,772,533.23,774.42Zm-195.7-231.5c64,36.94,104.9-6.39,105.21-117.35.31-106.29-40.24-193.29-104.22-230.23s-104.9,3-105.2,109.32C233,415.62,273.54,506,337.53,542.92" transform="translate(0 0)"/></g><g class="cls-8"><polygon class="cls-26" points="412.63 48.28 412.56 73.55 388.55 87.5 388.62 62.23 412.63 48.28"/><polygon class="cls-10" points="388.62 62.23 388.55 87.5 364.38 73.55 364.46 48.28 388.62 62.23"/><polygon class="cls-36" points="412.63 48.28 388.62 62.23 364.46 48.28 388.46 34.33 412.63 48.28"/></g><g class="cls-8"><polygon class="cls-54" points="555.47 726.69 555.4 751.96 531.39 765.91 531.46 740.64 555.47 726.69"/><polygon class="cls-55" points="531.46 740.64 531.39 765.91 507.23 751.96 507.3 726.69 531.46 740.64"/><polygon class="cls-56" points="555.47 726.69 531.46 740.64 507.3 726.69 531.31 712.73 555.47 726.69"/></g><path class="cls-57" d="M346.69,349.9s-2.5,13.27-4.5,14.6,9.58,3.59,9.46,1.25-.54-19.6-.54-19.6Z" transform="translate(0 0)"/><path class="cls-27" d="M358.29,342.62s2,13.68-1.89,17.13-11.91-9.46-11.91-9.46Z" transform="translate(0 0)"/><path class="cls-58" d="M358.84,346.29s10.79-11.46-1.67-11.57-13.23,7.56-13.56,8-.12,8.67,0,9.12S356.23,348.9,358.84,346.29Z" transform="translate(0 0)"/><path class="cls-58" d="M376.64,494.55v-.84l-5.34-1-12.5-77.79-28.54,1.21s-1.5,23.19,0,27.2,4.84,34.87-2.34,52.55a13.59,13.59,0,0,0-1.83,4v1.84h10.34l-4.82-4.51.54-4.5s8.79-17.85,10.12-36.54S345.61,430,345.61,430l1.33.67L358.83,470l11,29.2Z" transform="translate(0 0)"/><path class="cls-54" d="M358.8,416c.49-.67-5.5-51.55-5.5-51.55L342,363.25l-4.18,3.51-7.51,50.54Z" transform="translate(0 0)"/><path class="cls-54" d="M352.17,366.76l11,15.9s3.23,2.56,6.78,1.33a74.82,74.82,0,0,0,9.79-4.89l3.89.55L369,390.28s-8.56,7.17-14.46-4.51S352.17,366.76,352.17,366.76Z" transform="translate(0 0)"/><path class="cls-27" d="M328.7,410.88l2.73-3.2s.75,3.28,2.42,4.45,1.75,5.67,1.75,5.67-1.27,2.21-2.92.84a24.15,24.15,0,0,1-3.34-3.67Z" transform="translate(0 0)"/><path class="cls-54" d="M338.39,366.24l-10.8,16.08s-6.9,16.13,1.11,29.81l2.88-3.72s-2.51-11.61,0-16,4.88-7.8,4.88-7.8Z" transform="translate(0 0)"/><polygon class="cls-58" points="384.7 367.75 378.75 378.21 379.75 379.32 386.98 368.92 384.7 367.75"/><polygon class="cls-27" points="385.31 371.54 385.31 378.76 381.74 381.03 379.22 379.41 385.31 371.54"/></g></g></svg>