<svg xmlns="http://www.w3.org/2000/svg" xmlns:xlink="http://www.w3.org/1999/xlink" viewBox="0 0 826.55 704.81"><defs><style>.cls-1{fill:none;}.cls-2{fill:url(#未命名的渐变_25);}.cls-3{fill:url(#未命名的渐变_25-2);}.cls-4{fill:url(#未命名的渐变_22);}.cls-5{fill:#f5222d;}.cls-6{fill:url(#未命名的渐变_22-2);}.cls-7{fill:url(#未命名的渐变_25-3);}.cls-8{isolation:isolate;}.cls-9{clip-path:url(#clip-path);}.cls-10{fill:#fff;}.cls-11{fill:#fafafa;}.cls-12{fill:#f5f5f5;}.cls-13{fill:#f0f0f0;}.cls-14{fill:#ebebeb;}.cls-15{fill:#e6e6e6;}.cls-16{fill:#e0e0e0;}.cls-17{fill:#dbdbdb;}.cls-18{fill:#d6d6d6;}.cls-19{fill:#d1d1d1;}.cls-20{fill:#ccc;}.cls-21{fill:#c7c7c7;}.cls-22{fill:#c2c2c2;}.cls-23{fill:#bdbdbd;}.cls-24{fill:#b8b8b8;}.cls-25{fill:#b3b3b3;}.cls-26{fill:#adadad;}.cls-27{fill:#a8a8a8;}.cls-28{fill:#a3a3a3;}.cls-29{fill:#9e9e9e;}.cls-30{fill:#999;}.cls-31{fill:#949494;}.cls-32{fill:#8f8f8f;}.cls-33{fill:#8a8a8a;}.cls-34{fill:#858585;}.cls-35{fill:#cf1322;}.cls-36{fill:url(#未命名的渐变_40);}.cls-37{fill:url(#未命名的渐变_34);}.cls-38{fill:url(#未命名的渐变_40-2);}.cls-39{fill:url(#未命名的渐变_34-2);}.cls-40{fill:url(#未命名的渐变_40-3);}.cls-41{fill:url(#未命名的渐变_34-3);}.cls-42{clip-path:url(#clip-path-2);}.cls-43{fill:url(#未命名的渐变_40-4);}.cls-44{fill:url(#未命名的渐变_40-5);}.cls-45{fill:url(#未命名的渐变_40-6);}.cls-46{fill:#f9f9f9;}.cls-47{clip-path:url(#clip-path-3);}.cls-48{fill:url(#未命名的渐变_40-7);}.cls-49{fill:url(#未命名的渐变_40-8);}.cls-50{fill:#ff4d4f;}.cls-51{clip-path:url(#clip-path-4);}.cls-52{fill:url(#未命名的渐变_40-9);}.cls-53{fill:url(#未命名的渐变_40-10);}.cls-54{fill:url(#未命名的渐变_40-11);}.cls-55{fill:url(#未命名的渐变_40-12);}.cls-56{fill:url(#未命名的渐变_40-13);}.cls-57{clip-path:url(#clip-path-5);}.cls-58{fill:#ffccc7;}.cls-59{fill:gray;}.cls-60{clip-path:url(#clip-path-6);}.cls-61{clip-path:url(#clip-path-7);}.cls-62{fill:url(#未命名的渐变_40-14);}.cls-63{fill:url(#未命名的渐变_34-4);}.cls-64{fill:url(#未命名的渐变_40-15);}.cls-65{fill:url(#未命名的渐变_34-5);}.cls-66{fill:url(#未命名的渐变_40-16);}.cls-67{fill:url(#未命名的渐变_34-6);}.cls-68{fill:url(#未命名的渐变_40-17);}.cls-69{fill:url(#未命名的渐变_34-7);}.cls-70{fill:url(#未命名的渐变_40-18);}.cls-71{fill:url(#未命名的渐变_34-8);}.cls-72{fill:url(#未命名的渐变_7);}.cls-73{fill:#2b304f;}.cls-74{fill:#da4147;}.cls-75{fill:#fcee21;}.cls-76{fill:#2c3154;}.cls-77{fill:#ffa34e;}.cls-78{fill:#f7931e;}.cls-79{fill:#fbb03b;}</style><linearGradient id="未命名的渐变_25" x1="-1385.52" y1="300.47" x2="-1086.8" y2="300.47" gradientTransform="translate(1796)" gradientUnits="userSpaceOnUse"><stop offset="0" stop-color="#fcbd60"/><stop offset="1" stop-color="#ff2a9d"/></linearGradient><linearGradient id="未命名的渐变_25-2" x1="8623.34" y1="306.34" x2="8988.38" y2="306.34" gradientTransform="matrix(-1, 0, 0, 1, 9449.88, 0)" xlink:href="#未命名的渐变_25"/><linearGradient id="未命名的渐变_22" x1="8768.16" y1="420.12" x2="9099.15" y2="420.12" gradientTransform="matrix(-1, 0, 0, 1, 9449.88, 0)" gradientUnits="userSpaceOnUse"><stop offset="0" stop-color="#ffe496"/><stop offset="1" stop-color="#ff446f"/></linearGradient><linearGradient id="未命名的渐变_22-2" x1="8627.43" y1="373.29" x2="8919.2" y2="373.29" gradientTransform="matrix(-1, 0, 0, 1, 9062.63, 0)" xlink:href="#未命名的渐变_22"/><linearGradient id="未命名的渐变_25-3" x1="8567.17" y1="476.15" x2="8892.25" y2="476.15" gradientTransform="matrix(-1, 0, 0, 1, 9062.63, 0)" xlink:href="#未命名的渐变_25"/><clipPath id="clip-path" transform="translate(0 0)"><path class="cls-1" d="M540.31,460.65l-141,81.91C388,549.15,369,545.68,342.9,530.61c-37.81-21.83-78.47-67.4-109.21-117.95l141-81.92c30.74,50.56,71.4,96.13,109.21,118C510,463.76,529,467.24,540.31,460.65Z"/></clipPath><linearGradient id="未命名的渐变_40" x1="304.17" y1="433.86" x2="483.92" y2="433.86" gradientUnits="userSpaceOnUse"><stop offset="0" stop-color="#ff4d4f"/><stop offset="1" stop-color="#cf1322"/></linearGradient><linearGradient id="未命名的渐变_34" x1="290.08" y1="442.34" x2="469.83" y2="442.34" gradientUnits="userSpaceOnUse"><stop offset="0" stop-color="#fff"/><stop offset="1" stop-color="#ffccc7"/></linearGradient><linearGradient id="未命名的渐变_40-2" x1="275.98" y1="450.53" x2="455.73" y2="450.53" xlink:href="#未命名的渐变_40"/><linearGradient id="未命名的渐变_34-2" x1="261.89" y1="458.73" x2="441.63" y2="458.73" xlink:href="#未命名的渐变_34"/><linearGradient id="未命名的渐变_40-3" x1="247.79" y1="466.92" x2="427.54" y2="466.92" xlink:href="#未命名的渐变_40"/><linearGradient id="未命名的渐变_34-3" x1="233.7" y1="475.11" x2="413.44" y2="475.11" xlink:href="#未命名的渐变_34"/><clipPath id="clip-path-2" transform="translate(0 0)"><path class="cls-1" d="M301.06,182.28l141-81.92c-7.34,4.27-11.39,13-11.43,26.33-.1,35.43,30.69,65.93,67.29,103.8l-141,81.92c-36.6-37.88-67.39-68.38-67.29-103.8C289.67,195.31,293.72,186.54,301.06,182.28Z"/></clipPath><linearGradient id="未命名的渐变_40-4" x1="441.5" y1="202.29" x2="360.11" y2="202.29" xlink:href="#未命名的渐变_40"/><linearGradient id="未命名的渐变_40-5" x1="413.31" y1="218.67" x2="331.92" y2="218.67" xlink:href="#未命名的渐变_40"/><linearGradient id="未命名的渐变_40-6" x1="385.12" y1="235.05" x2="303.72" y2="235.05" xlink:href="#未命名的渐变_40"/><clipPath id="clip-path-3" transform="translate(0 0)"><polygon class="cls-1" points="356.92 312.4 497.88 230.49 554.23 290.48 413.27 372.39 356.92 312.4"/></clipPath><linearGradient id="未命名的渐变_40-7" x1="554.23" y1="264.58" x2="483.79" y2="264.58" xlink:href="#未命名的渐变_40"/><linearGradient id="未命名的渐变_40-8" x1="526.04" y1="280.96" x2="455.6" y2="280.96" xlink:href="#未命名的渐变_40"/><clipPath id="clip-path-4" transform="translate(0 0)"><path class="cls-1" d="M605.11,552.57l-141,81.92c22.93-13.33,35.32-40.71,35.42-77.7.2-71.52-34-129.44-86.3-184.4l141-81.91c52.29,54.95,86.5,112.87,86.3,184.39C640.43,511.87,628,539.25,605.11,552.57Z"/></clipPath><linearGradient id="未命名的渐变_40-9" x1="540.14" y1="425.62" x2="641.17" y2="425.62" xlink:href="#未命名的渐变_40"/><linearGradient id="未命名的渐变_40-10" x1="511.95" y1="442" x2="612.34" y2="442" xlink:href="#未命名的渐变_40"/><linearGradient id="未命名的渐变_40-11" x1="483.76" y1="458.39" x2="584.15" y2="458.39" xlink:href="#未命名的渐变_40"/><linearGradient id="未命名的渐变_40-12" x1="455.56" y1="474.77" x2="556.59" y2="474.77" xlink:href="#未命名的渐变_40"/><linearGradient id="未命名的渐变_40-13" x1="427.37" y1="491.15" x2="527.76" y2="491.15" xlink:href="#未命名的渐变_40"/><clipPath id="clip-path-5" transform="translate(0 0)"><path class="cls-1" d="M236.83,90.76l141-81.91C404.37-6.6,444.9-2.3,493.22,25.6l-141,81.91C303.94,79.61,263.41,75.31,236.83,90.76Z"/></clipPath><clipPath id="clip-path-6" transform="translate(0 0)"><polygon class="cls-1" points="487.04 248.94 628 167.02 584.2 203.99 443.24 285.91 487.04 248.94"/></clipPath><clipPath id="clip-path-7" transform="translate(0 0)"><path class="cls-1" d="M352.26,107.51l141-81.91c50,28.88,100,80.49,134.78,141.42L487,248.94C452.25,188,402.29,136.4,352.26,107.51Z"/></clipPath><linearGradient id="未命名的渐变_40-14" x1="628" y1="100.4" x2="479.13" y2="100.4" xlink:href="#未命名的渐变_40"/><linearGradient id="未命名的渐变_34-4" x1="613.9" y1="108.59" x2="465.03" y2="108.59" xlink:href="#未命名的渐变_34"/><linearGradient id="未命名的渐变_40-15" x1="599.81" y1="116.79" x2="450.93" y2="116.79" xlink:href="#未命名的渐变_40"/><linearGradient id="未命名的渐变_34-5" x1="585.71" y1="124.98" x2="436.84" y2="124.98" xlink:href="#未命名的渐变_34"/><linearGradient id="未命名的渐变_40-16" x1="571.61" y1="133.17" x2="422.74" y2="133.17" xlink:href="#未命名的渐变_40"/><linearGradient id="未命名的渐变_34-6" x1="557.52" y1="141.36" x2="408.65" y2="141.36" xlink:href="#未命名的渐变_34"/><linearGradient id="未命名的渐变_40-17" x1="543.42" y1="149.55" x2="394.55" y2="149.55" xlink:href="#未命名的渐变_40"/><linearGradient id="未命名的渐变_34-7" x1="529.33" y1="157.74" x2="380.45" y2="157.74" xlink:href="#未命名的渐变_34"/><linearGradient id="未命名的渐变_40-18" x1="515.23" y1="165.94" x2="366.36" y2="165.94" xlink:href="#未命名的渐变_40"/><linearGradient id="未命名的渐变_34-8" x1="501.13" y1="174.13" x2="352.26" y2="174.13" xlink:href="#未命名的渐变_34"/><linearGradient id="未命名的渐变_7" x1="499.57" y1="362.73" x2="184.06" y2="362.73" gradientUnits="userSpaceOnUse"><stop offset="0" stop-color="#f5222d"/><stop offset="1" stop-color="#cf1322"/></linearGradient></defs><g id="图层_2" data-name="图层 2"><g id="图层_1-2" data-name="图层 1"><path class="cls-2" d="M709.2,142.56a12,12,0,1,0-14.1,11.84c-7.14,66.41-39.42,99.18-65.92,115.06a137.77,137.77,0,0,1-35.67,14.88c-.17-1.3-1.3-2.73-3.15-4.08,63.12-39,70.17-116.77,70.72-142.52a12,12,0,1,0-2.4-.23c-.5,25.26-7.36,103-70.61,141.33a32.72,32.72,0,0,0-10.15-3.29C614,234,621,152.9,622.22,130.42a10.81,10.81,0,1,0-2.41,0C618.55,153,611.51,234.72,575,275.21c-1-.09-2-.15-3.11-.15-.85,0-1.68,0-2.5.09L558.12,137.68a12.07,12.07,0,1,0-2.42-.11L567,275.39a35.77,35.77,0,0,0-6.75,1.52c-34.57-18.2-44.87-95.86-47.64-127.21a12.08,12.08,0,1,0-2.49-.07c2.6,31.08,12.47,107.76,47.22,128.41a19.31,19.31,0,0,0-5.09,3.17c-61.48-17.41-78.37-87.88-82.62-114.88a10.76,10.76,0,1,0-2.53.32h.14c4.31,27.29,21.36,98.34,83.38,116.59a3.27,3.27,0,0,0-.41,1.47,3.82,3.82,0,0,0,1.77,2.86c-58.25,1.52-89.44-27.48-105.5-52.82-12.09-19.08-17.59-38.86-19.94-50.2a10.76,10.76,0,1,0-5.21,1.39,10.7,10.7,0,0,0,2.95-.46c2.44,11.61,8,31.38,20.12,50.49,16,25.25,46.6,54.09,103.14,54.09,2.9,0,5.91-.11,9-.27a49.65,49.65,0,0,0,14.71,2.13c15.15,159.85-18.32,194.61-18.66,195l2.49,2.61,2.47,2.64C559,490.7,594,456,578.41,291.59c6.46-.68,11.59-2.34,13.86-4.45a140.38,140.38,0,0,0,38.05-15.56c27-16.16,60-49.5,67.19-117A12,12,0,0,0,709.2,142.56Z" transform="translate(0 0)"/><path class="cls-3" d="M549.49,392.2c-2.41-7.22-36.17-132.53,43.36-53,0,0,24.1,33.73,9.64,101.18-4.82,33.73,77.09-24.09,36.14-120.45S684.4,129.61,710.9,175.39,696.45,312.7,684.4,341.61s0,69.87,28.91,31.32,53-118,45.77-200S790.4,33.25,802.45,33.25s24.09,7.23,24.09,38.54c0,0,7,483.63-333.47,507.62a5.81,5.81,0,0,1-5.26-9,56.28,56.28,0,0,0,8.68-38.52c-4.82-38.55-16.86-48.18-31.32-65s16.87-72.27,41-16.86,16.86,72.27,48.18,67.46-2.41-118-4.82-125.28-38.54-130.09,43.36-53" transform="translate(0 0)"/><path class="cls-4" d="M466.72,468.13a6.75,6.75,0,0,0,7.62,3.25c3-.9,6-3.91,6-12.34,0-14.9-13.16-133.13-16.23-160.56a39.47,39.47,0,0,1,.7-13c3.09-14,12.08-41.37,32.39-19.21,23.67,25.82,7,161.17,3.14,189.81a8.29,8.29,0,0,0,7.7,9.48c4.55.17,11.18-1.74,20.48-9,18.19-14.15,50-77.52,59.71-97.52a33.87,33.87,0,0,1,14.4-15.28c7.62-4.05,17.51-5.1,24.66,9.21s12,26.5-9.64,50.59C600.25,423,559.86,447,550.23,473.49s24.09,12.05,24.09,12.05S663.46,425.31,677.91,447c7.23,10.84,3,20.48-3,27.41a40.63,40.63,0,0,1-22.54,12.8c-19.57,4.06-66.17,15.55-75.63,34.47C563.1,548.93,511.68,594,468.32,579.49s-4.82-55.41-55.41-86.73-96.36-98.77-26.5-79.5C439.47,427.9,461.08,458.51,466.72,468.13Z" transform="translate(0 0)"/><path class="cls-5" d="M286.85,544.43S130.47,411.72,59.7,261A30.36,30.36,0,0,0,51,250C36.19,238.28-1.21,215.78,0,287.44,1.71,298.2,15.08,436.67,286.85,544.43Z" transform="translate(0 0)"/><path class="cls-6" d="M364.87,441.92c1.93-5.78,28.91-105.94-34.66-42.36,0,0-19.26,26.95-7.7,80.87,3.85,27-61.62-19.26-28.88-96.28S257,232,235.86,268.62,247.41,378.38,257,401.48s0,55.84-23.11,25-42.36-94.35-36.58-159.82S172.32,155,162.69,155s-19.26,5.78-19.26,30.81c0,0-5.63,386.55,266.53,405.73a4.65,4.65,0,0,0,4.21-7.17,45,45,0,0,1-6.94-30.78c3.85-30.81,13.48-38.51,25-52s-13.48-57.77-32.73-13.48S386.05,545.9,361,542s1.92-94.35,3.85-100.12,30.81-104-34.66-42.36" transform="translate(0 0)"/><path class="cls-7" d="M312,561.49s-36.58-21.18-71.24-17.33-86.65-15.41-65.47-36.59c20.73-20.72,76.49-13.79,98.71,8.17a3.79,3.79,0,0,0,4.52.76c1.22-.72,1.73-2.16-1.18-5.07-5.77-5.78-63.54-42.37-23.1-63.55,35.7-18.7,56.39,45.17,60.75,60.37a5.23,5.23,0,0,0,5.44,3.9c2.16-.24,4.09-1.69,3.13-6.5C320.9,492.3,312,461.36,302.38,444c-6.74-12.14,0-61.61,25-52S364,447.88,364,476.77c0,11.55,9.63-7.71,9.63-7.71s32.73-90.5,48.14-57.76-9.51,88.45-25,104c-5.78,5.77,9.62,1.92,9.62,1.92s78.95-19.25,88.58,15.41-115.53-7.71-169.45,28.88Z" transform="translate(0 0)"/><g class="cls-8"><g class="cls-8"><g class="cls-9"><g class="cls-8"><path class="cls-10" d="M233.69,412.66l141-81.92q6.14,10.1,12.77,19.88l-141,81.92q-6.63-9.77-12.78-19.88" transform="translate(0 0)"/><path class="cls-10" d="M246.47,432.54l141-81.92q5.5,8.11,11.29,15.92l-141,81.92q-5.77-7.8-11.28-15.92" transform="translate(0 0)"/><path class="cls-10" d="M257.75,448.46l141-81.92q4,5.4,8.11,10.63l-141,81.91q-4.11-5.22-8.11-10.62" transform="translate(0 0)"/><path class="cls-10" d="M265.86,459.08l141-81.91q3.62,4.57,7.29,9l-141,81.92q-3.67-4.43-7.29-9" transform="translate(0 0)"/><path class="cls-10" d="M273.15,468.09l141-81.92q3.5,4.2,7.05,8.25l-141,81.92q-3.56-4.05-7.05-8.25" transform="translate(0 0)"/><path class="cls-10" d="M280.2,476.34l141-81.92q3.43,3.91,6.92,7.67L287.12,484q-3.48-3.75-6.92-7.67" transform="translate(0 0)"/><path class="cls-11" d="M287.12,484l141-81.92q3.46,3.74,6.95,7.29l-141,81.92q-3.49-3.56-6.95-7.29" transform="translate(0 0)"/><path class="cls-12" d="M294.07,491.3l141-81.92q3.47,3.53,7,6.88L301,498.18q-3.5-3.35-7-6.88" transform="translate(0 0)"/><path class="cls-13" d="M301,498.18l141-81.92q3.42,3.28,6.85,6.38l-141,81.91q-3.44-3.09-6.85-6.37" transform="translate(0 0)"/><path class="cls-14" d="M307.88,504.55l141-81.91q3.3,3,6.6,5.75l-141,81.92q-3.3-2.79-6.6-5.76" transform="translate(0 0)"/><path class="cls-15" d="M314.48,510.31l141-81.92c2.07,1.75,4.15,3.45,6.22,5.09l-141,81.91c-2.07-1.63-4.15-3.33-6.22-5.08" transform="translate(0 0)"/><path class="cls-16" d="M320.7,515.39l141-81.91q2.93,2.29,5.83,4.44l-141,81.92q-2.91-2.15-5.83-4.45" transform="translate(0 0)"/><path class="cls-17" d="M326.53,519.84l141-81.92q2.73,2,5.45,3.87L332,523.71q-2.72-1.86-5.45-3.87" transform="translate(0 0)"/><path class="cls-18" d="M332,523.71l141-81.92c1.7,1.17,3.39,2.29,5.09,3.37l-141,81.91c-1.69-1.07-3.39-2.2-5.09-3.36" transform="translate(0 0)"/><path class="cls-19" d="M337.07,527.07l141-81.91q2.37,1.5,4.74,2.9L341.81,530c-1.57-.93-3.16-1.9-4.74-2.91" transform="translate(0 0)"/><path class="cls-20" d="M341.81,530l141-81.92,1.09.64q2.37,1.37,4.66,2.6l-141,81.92q-2.3-1.25-4.66-2.61l-1.09-.63" transform="translate(0 0)"/><path class="cls-21" d="M347.56,533.22l141-81.92q2.81,1.53,5.51,2.86l-141,81.92q-2.7-1.33-5.51-2.86" transform="translate(0 0)"/><path class="cls-22" d="M353.07,536.08l141-81.92q2.52,1.26,5,2.34L358,538.42q-2.43-1.09-4.95-2.34" transform="translate(0 0)"/><path class="cls-23" d="M358,538.42,499,456.5c1.53.69,3,1.32,4.5,1.91l-141,81.92q-2.2-.89-4.5-1.91" transform="translate(0 0)"/><path class="cls-24" d="M362.52,540.33l141-81.92c1.39.56,2.76,1.07,4.09,1.54l-141,81.92c-1.33-.47-2.7-1-4.09-1.54" transform="translate(0 0)"/><path class="cls-25" d="M366.61,541.87l141-81.92c1.28.46,2.53.87,3.76,1.24l-141,81.91c-1.23-.37-2.48-.78-3.76-1.23" transform="translate(0 0)"/><path class="cls-26" d="M370.37,543.1l141-81.91c1.2.36,2.37.68,3.52,1l-141,81.92c-1.15-.29-2.32-.61-3.52-1" transform="translate(0 0)"/><path class="cls-27" d="M373.89,544.08l141-81.92c1.12.28,2.22.53,3.3.74l-141,81.92c-1.08-.21-2.18-.46-3.3-.74" transform="translate(0 0)"/><path class="cls-28" d="M377.19,544.82l141-81.92c1.07.21,2.11.38,3.13.52l-141,81.92c-1-.14-2.06-.32-3.13-.52" transform="translate(0 0)"/><path class="cls-29" d="M380.32,545.34l141-81.92c1,.14,2,.24,3,.31l-141,81.92c-1-.07-2-.17-3-.31" transform="translate(0 0)"/><path class="cls-30" d="M383.34,545.65l141-81.92c1,.07,2,.1,2.92.1l-141,81.92c-.94,0-1.92,0-2.92-.1" transform="translate(0 0)"/><path class="cls-31" d="M386.26,545.75l141-81.92c1,0,2-.05,3-.13l-141,81.91c-1,.09-2,.13-3,.14" transform="translate(0 0)"/><path class="cls-32" d="M389.24,545.61l141-81.91a29.24,29.24,0,0,0,3.08-.45l-141,81.92a27,27,0,0,1-3.07.44" transform="translate(0 0)"/><path class="cls-33" d="M392.31,545.17l141-81.92a25,25,0,0,0,3.45-.95l-141,81.92a24.21,24.21,0,0,1-3.45.95" transform="translate(0 0)"/><path class="cls-34" d="M395.76,544.22l141-81.92a21.34,21.34,0,0,0,3.59-1.65l-141,81.91a21.37,21.37,0,0,1-3.59,1.66" transform="translate(0 0)"/></g><path class="cls-35" d="M526.21,468.84c-11.34,6.59-30.35,3.11-56.44-11.95C432,435.06,391.3,389.49,360.56,338.94l14.09-8.19c30.74,50.55,71.4,96.12,109.21,118,26.09,15.06,45.1,18.54,56.45,11.95l-14.1,8.19" transform="translate(0 0)"/><path class="cls-10" d="M512.11,477c-11.34,6.59-30.35,3.12-56.44-11.95-37.81-21.83-78.47-67.4-109.21-117.95l14.1-8.19c30.74,50.55,71.4,96.12,109.21,118,26.09,15.06,45.1,18.54,56.44,11.95L512.11,477" transform="translate(0 0)"/><path class="cls-35" d="M498,485.22c-11.34,6.59-30.35,3.12-56.45-12-37.81-21.83-78.46-67.4-109.2-117.95l14.09-8.19c30.74,50.55,71.4,96.12,109.21,118,26.09,15.07,45.1,18.54,56.44,11.95L498,485.22" transform="translate(0 0)"/><path class="cls-10" d="M483.92,493.41c-11.34,6.6-30.35,3.12-56.44-12-37.81-21.83-78.47-67.4-109.21-117.95l14.1-8.19c30.74,50.55,71.39,96.12,109.2,118,26.1,15.07,45.11,18.54,56.45,12l-14.1,8.19" transform="translate(0 0)"/><path class="cls-36" d="M469.83,501.6c-26.67,12.73-97.77-19.76-165.66-129.89l14.1-8.2c30.74,50.55,71.4,96.12,109.21,118,26.09,15.07,45.1,18.55,56.44,12l-14.09,8.19" transform="translate(0 0)"/><path class="cls-37" d="M455.73,509.8c-11.34,6.59-30.35,3.11-56.44-11.95-37.81-21.83-78.47-67.4-109.21-118l14.09-8.19c69,111.14,139.65,143.21,165.66,129.89l-14.1,8.2" transform="translate(0 0)"/><path class="cls-38" d="M441.63,518c-11.34,6.59-30.35,3.11-56.44-11.95-37.81-21.83-78.47-67.4-109.21-118l14.1-8.19c30.74,50.55,71.4,96.12,109.21,118,26.09,15.06,45.1,18.54,56.44,11.95L441.63,518" transform="translate(0 0)"/><path class="cls-39" d="M427.54,526.18c-11.34,6.59-30.35,3.11-56.45-11.95-37.81-21.83-78.46-67.4-109.2-118L276,388.09c30.74,50.55,71.4,96.12,109.21,118,26.09,15.06,45.1,18.54,56.44,11.95l-14.09,8.19" transform="translate(0 0)"/><path class="cls-40" d="M413.44,534.37c-11.34,6.59-30.35,3.12-56.44-12-37.81-21.83-78.47-67.4-109.21-117.95l14.1-8.19c30.74,50.55,71.39,96.12,109.2,118,26.1,15.06,45.11,18.54,56.45,11.95l-14.1,8.19" transform="translate(0 0)"/><path class="cls-41" d="M399.35,542.56C388,549.15,369,545.68,342.9,530.61c-37.81-21.83-78.47-67.4-109.2-117.95l14.09-8.19C278.53,455,319.19,500.59,357,522.42c26.09,15.07,45.1,18.54,56.44,12l-14.09,8.19" transform="translate(0 0)"/></g></g><g class="cls-8"><g class="cls-42"><g class="cls-8"><path class="cls-34" d="M301.06,182.28l141-81.92a19.58,19.58,0,0,0-6.7,6.49l-141,81.92a19.58,19.58,0,0,1,6.7-6.49" transform="translate(0 0)"/><path class="cls-33" d="M294.36,188.77l141-81.92a23.76,23.76,0,0,0-1.41,2.54L293,191.31a22.83,22.83,0,0,1,1.41-2.54" transform="translate(0 0)"/><path class="cls-32" d="M293,191.31l141-81.92c-.34.71-.66,1.46-1,2.24L292,193.55c.29-.78.61-1.53.95-2.24" transform="translate(0 0)"/><path class="cls-31" d="M292,193.55l141-81.92c-.26.7-.5,1.43-.72,2.18l-141,81.92c.22-.75.46-1.48.72-2.18" transform="translate(0 0)"/><path class="cls-30" d="M291.28,195.73l141-81.92c-.19.65-.36,1.31-.52,2l-141,81.92c.16-.68.33-1.35.52-2" transform="translate(0 0)"/><path class="cls-29" d="M290.76,197.72l141-81.92c-.16.68-.3,1.38-.42,2.09l-141,81.92c.13-.72.26-1.41.42-2.09" transform="translate(0 0)"/><path class="cls-28" d="M290.34,199.81l141-81.92c-.11.67-.22,1.35-.3,2L290,201.85c.08-.69.19-1.38.3-2" transform="translate(0 0)"/><path class="cls-27" d="M290,201.85l141-81.91c-.09.69-.16,1.41-.22,2.14L289.82,204c.06-.73.13-1.44.22-2.14" transform="translate(0 0)"/><path class="cls-26" d="M289.82,204l141-81.91c-.06.71-.11,1.44-.14,2.19l-141,81.91c0-.74.08-1.47.14-2.19" transform="translate(0 0)"/><path class="cls-25" d="M289.68,206.18l141-81.91c0,.74-.05,1.51-.05,2.28l-141,81.92c0-.78,0-1.54.05-2.29" transform="translate(0 0)"/><path class="cls-24" d="M289.63,208.47l141-81.92v.14c0,.65,0,1.3,0,1.94l-141,81.92c0-.65,0-1.29,0-1.94v-.14" transform="translate(0 0)"/><path class="cls-23" d="M289.65,210.55l141-81.92c0,.69.05,1.37.1,2.05l-141,81.92c0-.68-.08-1.37-.1-2" transform="translate(0 0)"/><path class="cls-22" d="M289.75,212.6l141-81.92c0,.67.09,1.34.15,2L289.91,214.6c-.07-.67-.12-1.33-.16-2" transform="translate(0 0)"/><path class="cls-21" d="M289.91,214.6l141-81.92c.07.64.14,1.27.22,1.91l-141,81.92c-.08-.64-.15-1.28-.21-1.91" transform="translate(0 0)"/><path class="cls-20" d="M290.12,216.51l141-81.92c.08.63.17,1.27.27,1.9l-141,81.92c-.1-.64-.19-1.27-.27-1.9" transform="translate(0 0)"/><path class="cls-19" d="M290.39,218.41l141-81.92c.1.63.2,1.26.32,1.89l-141,81.91c-.11-.62-.22-1.25-.32-1.88" transform="translate(0 0)"/><path class="cls-18" d="M290.71,220.29l141-81.91c.12.62.25,1.25.38,1.87l-141,81.92c-.13-.62-.26-1.25-.38-1.88" transform="translate(0 0)"/><path class="cls-17" d="M291.09,222.17l141-81.92c.14.63.28,1.25.44,1.87L291.53,224c-.15-.62-.3-1.25-.44-1.87" transform="translate(0 0)"/><path class="cls-16" d="M291.53,224l141-81.92c.15.62.32,1.24.49,1.86L292,225.9c-.17-.62-.34-1.24-.49-1.86" transform="translate(0 0)"/><path class="cls-15" d="M292,225.9,433,144c.17.62.35,1.24.54,1.85l-141,81.92c-.19-.62-.37-1.23-.54-1.85" transform="translate(0 0)"/><path class="cls-14" d="M292.56,227.75l141-81.92c.19.62.38,1.23.59,1.84l-141,81.92c-.21-.61-.4-1.23-.59-1.84" transform="translate(0 0)"/><path class="cls-13" d="M293.15,229.59l141-81.92c.2.6.4,1.19.62,1.78l-141,81.92c-.22-.59-.42-1.19-.62-1.78" transform="translate(0 0)"/><path class="cls-12" d="M293.77,231.37l141-81.92c.21.6.44,1.19.67,1.78l-141,81.92c-.23-.59-.46-1.19-.67-1.78" transform="translate(0 0)"/><path class="cls-11" d="M294.44,233.15l141-81.92c.23.6.47,1.2.72,1.79l-141,81.92c-.25-.6-.49-1.19-.72-1.79" transform="translate(0 0)"/><path class="cls-10" d="M295.16,234.94l141-81.92c.25.62.52,1.23.79,1.85L296,236.78c-.27-.61-.54-1.23-.79-1.84" transform="translate(0 0)"/><path class="cls-10" d="M296,236.78l141-81.91c.27.61.55,1.22.84,1.84l-141,81.91c-.29-.61-.57-1.22-.84-1.84" transform="translate(0 0)"/><path class="cls-10" d="M296.79,238.62l141-81.91c.34.73.7,1.47,1.07,2.2l-141,81.91c-.37-.73-.73-1.46-1.07-2.2" transform="translate(0 0)"/><path class="cls-10" d="M297.86,240.82l141-81.91c.42.84.85,1.68,1.3,2.52l-141,81.91c-.45-.84-.88-1.67-1.3-2.52" transform="translate(0 0)"/><path class="cls-10" d="M299.16,243.34l141-81.91q1.19,2.22,2.51,4.44l-141,81.92c-.88-1.48-1.71-3-2.51-4.45" transform="translate(0 0)"/><path class="cls-10" d="M301.67,247.79l141-81.92q2.1,3.52,4.49,7.06L306.17,254.84q-2.4-3.53-4.5-7.05" transform="translate(0 0)"/><path class="cls-10" d="M306.17,254.84l141-81.91c1.3,1.91,2.67,3.83,4.09,5.75l-141,81.91c-1.42-1.92-2.78-3.83-4.08-5.75" transform="translate(0 0)"/><path class="cls-10" d="M310.25,260.59l141-81.91q1.85,2.48,3.81,5l-141,81.91q-2-2.49-3.81-5" transform="translate(0 0)"/><path class="cls-10" d="M314.06,265.57l141-81.91q2.12,2.68,4.38,5.39L318.44,271q-2.26-2.7-4.38-5.4" transform="translate(0 0)"/><path class="cls-10" d="M318.44,271l141-81.92c1.83,2.21,3.74,4.42,5.7,6.65l-141,81.92q-2.94-3.35-5.7-6.65" transform="translate(0 0)"/><path class="cls-10" d="M324.14,277.62l141-81.92q4.2,4.78,8.74,9.67L332.89,287.28q-4.54-4.87-8.75-9.66" transform="translate(0 0)"/><path class="cls-11" d="M332.89,287.28l141-81.91c7.51,8.08,15.62,16.4,24,25.12l-141,81.92c-8.42-8.72-16.53-17-24-25.13" transform="translate(0 0)"/></g><path class="cls-35" d="M483.79,238.68c-36.6-37.87-67.4-68.37-67.3-103.8,0-13.29,4.1-22.06,11.44-26.33L442,100.36c-21,14.6-6.51,51.2-6.35,51.57,11,25.54,29.17,44.37,62.21,78.56l-14.09,8.19" transform="translate(0 0)"/><path class="cls-10" d="M469.69,246.87c-36.6-37.87-67.4-68.37-67.3-103.8,0-13.29,4.1-22.06,11.44-26.32l14.1-8.2c-7.34,4.27-11.4,13-11.44,26.33-.1,35.43,30.7,65.93,67.3,103.8l-14.1,8.19" transform="translate(0 0)"/><path class="cls-35" d="M455.59,255.06c-36.6-37.87-67.39-68.37-67.29-103.8,0-13.29,4.1-22.06,11.43-26.32l14.1-8.19c-7.34,4.26-11.4,13-11.44,26.32-.1,35.43,30.7,65.93,67.3,103.8l-14.1,8.19" transform="translate(0 0)"/><path class="cls-10" d="M441.5,263.25c-36.6-37.87-67.4-68.37-67.3-103.79,0-13.3,4.1-22.07,11.44-26.33l14.09-8.19c-7.33,4.26-11.39,13-11.43,26.32-.1,35.43,30.69,65.93,67.29,103.8l-14.09,8.19" transform="translate(0 0)"/><path class="cls-43" d="M427.4,271.45c-36.6-37.88-67.39-68.37-67.29-103.8,0-13.3,4.09-22.06,11.43-26.33l14.1-8.19c-7.34,4.26-11.4,13-11.44,26.33-.1,35.42,30.7,65.92,67.3,103.79l-14.1,8.2" transform="translate(0 0)"/><path class="cls-10" d="M413.31,279.64c-36.6-37.87-67.4-68.37-67.3-103.8,0-13.3,4.1-22.06,11.44-26.33l14.09-8.19c-7.34,4.27-11.39,13-11.43,26.33-.1,35.43,30.69,65.92,67.29,103.8l-14.09,8.19" transform="translate(0 0)"/><path class="cls-44" d="M399.21,287.83C362.61,250,331.82,219.46,331.92,184c0-13.29,4.09-22.06,11.43-26.33l14.1-8.19c-7.34,4.27-11.4,13-11.44,26.33-.1,35.43,30.7,65.93,67.3,103.8l-14.1,8.19" transform="translate(0 0)"/><path class="cls-10" d="M385.12,296c-36.6-37.87-67.4-68.37-67.3-103.8,0-13.29,4.1-22.06,11.43-26.32l14.1-8.2C336,162,332,170.74,331.92,184c-.1,35.43,30.69,65.93,67.29,103.8L385.12,296" transform="translate(0 0)"/><path class="cls-45" d="M371,304.21c-36.6-37.87-67.4-68.37-67.3-103.79,0-13.3,4.1-22.07,11.44-26.33l14.09-8.19c-7.33,4.26-11.39,13-11.43,26.32-.1,35.43,30.7,65.93,67.3,103.8L371,304.21" transform="translate(0 0)"/><path class="cls-10" d="M356.92,312.4c-36.6-37.87-67.39-68.37-67.29-103.79,0-13.3,4.1-22.07,11.43-26.33l14.1-8.19c-7.34,4.26-11.4,13-11.44,26.33-.1,35.42,30.7,65.92,67.3,103.79l-14.1,8.19" transform="translate(0 0)"/></g></g><polygon class="cls-46" points="356.92 312.4 497.88 230.49 554.23 290.48 413.27 372.39 356.92 312.4"/><g class="cls-8"><g class="cls-47"><polyline class="cls-48" points="554.23 290.48 497.88 230.49 483.79 238.68 540.14 298.67 554.23 290.48"/><polyline class="cls-10" points="540.14 298.67 483.79 238.68 469.69 246.87 526.04 306.86 540.14 298.67"/><polyline class="cls-49" points="526.04 306.86 469.69 246.87 455.6 255.06 511.94 315.05 526.04 306.86"/><polyline class="cls-10" points="511.94 315.05 455.6 255.06 441.5 263.26 497.85 323.24 511.94 315.05"/><polyline class="cls-50" points="497.85 323.24 441.5 263.26 427.4 271.45 483.75 331.43 497.85 323.24"/><polyline class="cls-10" points="483.75 331.43 427.4 271.45 413.31 279.64 469.66 339.63 483.75 331.43"/><polyline class="cls-50" points="469.66 339.63 413.31 279.64 399.21 287.83 455.56 347.82 469.66 339.63"/><polyline class="cls-10" points="455.56 347.82 399.21 287.83 385.12 296.02 441.47 356.01 455.56 347.82"/><polyline class="cls-50" points="441.47 356.01 385.12 296.02 371.02 304.21 427.37 364.2 441.47 356.01"/><polyline class="cls-10" points="427.37 364.2 371.02 304.21 356.93 312.4 413.27 372.39 427.37 364.2"/></g></g><g class="cls-8"><g class="cls-51"><g class="cls-8"><path class="cls-11" d="M413.27,372.39l141-81.91q2.4,2.5,4.74,5L418,377.43q-2.34-2.52-4.74-5" transform="translate(0 0)"/><path class="cls-10" d="M418,377.43l141-81.91q4.69,5.06,9.17,10.15L427.19,387.59q-4.49-5.1-9.18-10.16" transform="translate(0 0)"/><path class="cls-10" d="M427.19,387.59l141-81.92q4,4.54,7.8,9.12L435,396.7q-3.81-4.57-7.79-9.11" transform="translate(0 0)"/><path class="cls-10" d="M435,396.7l141-81.91q3.54,4.24,6.91,8.52l-141,81.92q-3.37-4.29-6.91-8.53" transform="translate(0 0)"/><path class="cls-10" d="M441.89,405.23l141-81.92q3.46,4.4,6.75,8.84l-141,81.91q-3.28-4.44-6.75-8.83" transform="translate(0 0)"/><path class="cls-10" d="M448.64,414.06l141-81.91q4.47,6,8.61,12.16l-141,81.91q-4.12-6.12-8.61-12.16" transform="translate(0 0)"/><path class="cls-10" d="M457.25,426.22l141-81.91q5.35,7.92,10.11,16l-141,81.92q-4.74-8.1-10.11-16" transform="translate(0 0)"/><path class="cls-10" d="M467.36,442.25l141-81.92q2.8,4.77,5.38,9.6l-141,81.92q-2.58-4.83-5.38-9.6" transform="translate(0 0)"/><path class="cls-10" d="M472.74,451.85l141-81.92q1.72,3.22,3.34,6.48l-141,81.92q-1.62-3.25-3.34-6.48" transform="translate(0 0)"/><path class="cls-10" d="M476.08,458.33l141-81.92c.84,1.7,1.67,3.4,2.47,5.11l-141,81.91c-.8-1.71-1.63-3.41-2.47-5.1" transform="translate(0 0)"/><path class="cls-10" d="M478.55,463.43l141-81.91c.79,1.68,1.55,3.36,2.3,5.05l-141,81.92c-.75-1.69-1.51-3.38-2.3-5.06" transform="translate(0 0)"/><path class="cls-10" d="M480.85,468.49l141-81.92c.71,1.6,1.39,3.19,2.06,4.8l-141,81.92c-.67-1.61-1.35-3.21-2.06-4.8" transform="translate(0 0)"/><path class="cls-11" d="M482.91,473.29l141-81.92q1,2.43,2,4.87l-141,81.91q-1-2.44-2-4.86" transform="translate(0 0)"/><path class="cls-12" d="M484.87,478.15l141-81.91c.64,1.65,1.27,3.32,1.87,5l-141,81.91c-.6-1.67-1.23-3.33-1.87-5" transform="translate(0 0)"/><path class="cls-13" d="M486.74,483.14l141-81.91q.93,2.56,1.79,5.14L488.54,488.29q-.87-2.58-1.8-5.15" transform="translate(0 0)"/><path class="cls-14" d="M488.54,488.29l141-81.92q.9,2.67,1.72,5.36l-141,81.92q-.83-2.68-1.71-5.36" transform="translate(0 0)"/><path class="cls-15" d="M490.25,493.65l141-81.92q.85,2.76,1.62,5.55l-141,81.91q-.76-2.78-1.62-5.54" transform="translate(0 0)"/><path class="cls-16" d="M491.87,499.19l141-81.91c.52,1.88,1,3.78,1.49,5.68l-141,81.92c-.47-1.91-1-3.8-1.49-5.69" transform="translate(0 0)"/><path class="cls-17" d="M493.36,504.88l141-81.92q.72,2.91,1.37,5.86l-141,81.91c-.43-2-.88-3.91-1.37-5.85" transform="translate(0 0)"/><path class="cls-18" d="M494.73,510.73l141-81.91q.64,3,1.2,5.95l-141,81.92c-.37-2-.77-4-1.2-6" transform="translate(0 0)"/><path class="cls-19" d="M495.93,516.69l141-81.92c.38,2,.74,4.06,1.06,6.11L497,522.8c-.32-2-.68-4.09-1.06-6.11" transform="translate(0 0)"/><path class="cls-20" d="M497,522.8l141-81.92c.33,2.09.62,4.18.89,6.29l-141,81.92c-.27-2.11-.56-4.21-.89-6.29" transform="translate(0 0)"/><path class="cls-21" d="M497.88,529.09l141-81.92q.4,3.21.72,6.45l-141,81.92q-.32-3.25-.72-6.45" transform="translate(0 0)"/><path class="cls-22" d="M498.6,535.54l141-81.92c.21,2.28.4,4.57.54,6.88l-141,81.92c-.14-2.31-.33-4.6-.54-6.88" transform="translate(0 0)"/><path class="cls-23" d="M499.14,542.42l141-81.92q.23,3.58.33,7.22L499.48,549.64c-.08-2.43-.19-4.83-.34-7.22" transform="translate(0 0)"/><path class="cls-24" d="M499.48,549.64l140.95-81.92q.12,3.55.1,7.15v.36l-141,81.91v-.35q0-3.6-.09-7.15" transform="translate(0 0)"/><path class="cls-25" d="M499.57,557.14l141-81.91q0,3-.14,5.95l-141,81.92c.08-2,.13-3.94.14-6" transform="translate(0 0)"/><path class="cls-26" d="M499.43,563.1l141-81.92q-.12,2.94-.36,5.79l-141,81.92q.24-2.85.36-5.79" transform="translate(0 0)"/><path class="cls-27" d="M499.07,568.89,640,487q-.24,3-.61,5.89l-141,81.92q.38-2.89.61-5.89" transform="translate(0 0)"/><path class="cls-28" d="M498.46,574.78l141-81.92q-.36,2.94-.86,5.77l-141,81.92q.5-2.84.86-5.77" transform="translate(0 0)"/><path class="cls-29" d="M497.6,580.55l141-81.92c-.35,2-.75,4-1.2,6l-141,81.91c.45-1.95.85-3.95,1.2-6" transform="translate(0 0)"/><path class="cls-30" d="M496.4,586.53l141-81.91c-.47,2.07-1,4.1-1.58,6.07l-141,81.92c.58-2,1.11-4,1.58-6.08" transform="translate(0 0)"/><path class="cls-31" d="M494.82,592.61l141-81.92q-.94,3.23-2.07,6.25l-141,81.91q1.13-3,2.07-6.24" transform="translate(0 0)"/><path class="cls-32" d="M492.75,598.85l141-81.91c-.91,2.44-1.9,4.78-3,7l-141,81.92q1.62-3.39,3-7" transform="translate(0 0)"/><path class="cls-33" d="M489.77,605.9l141-81.92a75,75,0,0,1-4.49,8.1L485.28,614a75,75,0,0,0,4.49-8.1" transform="translate(0 0)"/><path class="cls-34" d="M485.28,614l141-81.92a62,62,0,0,1-21.13,20.49l-141,81.92A62.11,62.11,0,0,0,485.28,614" transform="translate(0 0)"/></g><path class="cls-52" d="M591,560.76c22.93-13.32,35.32-40.7,35.42-77.7.21-71.52-34-129.43-86.29-184.39l14.1-8.19C686.34,432.23,637,533.59,605.1,552.57L591,560.76" transform="translate(0 0)"/><path class="cls-10" d="M576.91,569c22.93-13.33,35.32-40.71,35.43-77.7.2-71.53-34-129.44-86.3-184.4l14.1-8.19c52.28,55,86.5,112.87,86.29,184.39-.1,37-12.49,64.38-35.42,77.7l-14.1,8.2" transform="translate(0 0)"/><path class="cls-53" d="M562.82,577.15c22.93-13.33,35.32-40.71,35.42-77.7.21-71.52-34-129.44-86.29-184.4L526,306.86c52.29,55,86.5,112.87,86.3,184.4-.11,37-12.5,64.37-35.43,77.7l-14.09,8.19" transform="translate(0 0)"/><path class="cls-10" d="M548.72,585.34c22.93-13.33,35.32-40.71,35.42-77.7.21-71.52-34-129.44-86.29-184.39l14.1-8.2c52.28,55,86.5,112.88,86.29,184.4-.1,37-12.49,64.37-35.42,77.7l-14.1,8.19" transform="translate(0 0)"/><path class="cls-54" d="M534.63,593.53c22.93-13.33,35.32-40.71,35.42-77.7.2-71.52-34-129.43-86.29-184.39l14.09-8.19c52.28,54.95,86.5,112.87,86.29,184.39-.1,37-12.49,64.37-35.42,77.7l-14.09,8.19" transform="translate(0 0)"/><path class="cls-10" d="M520.53,601.72c50.34-34.32,60.67-144.5-50.87-262.09l14.1-8.19c52.28,55,86.49,112.87,86.29,184.39-.1,37-12.49,64.37-35.42,77.7l-14.1,8.19" transform="translate(0 0)"/><path class="cls-55" d="M506.43,609.91c22.93-13.32,35.32-40.7,35.43-77.7.2-71.52-34-129.43-86.3-184.39l14.1-8.19c132.11,141.75,82.75,243.11,50.87,262.09l-14.1,8.19" transform="translate(0 0)"/><path class="cls-10" d="M492.34,618.1c22.93-13.32,35.32-40.7,35.42-77.69.21-71.53-34-129.44-86.29-184.4l14.09-8.19c52.29,55,86.5,112.87,86.3,184.39-.11,37-12.5,64.38-35.43,77.7l-14.09,8.19" transform="translate(0 0)"/><path class="cls-56" d="M478.24,626.3c50.34-34.33,60.67-144.5-50.87-262.09l14.1-8.2c52.28,55,86.5,112.87,86.29,184.4-.1,37-12.49,64.37-35.42,77.69l-14.1,8.2" transform="translate(0 0)"/><path class="cls-10" d="M464.15,634.49c22.93-13.33,35.32-40.71,35.42-77.7.2-71.52-34-129.44-86.29-184.39l14.09-8.19C559.48,506,510.12,607.32,478.24,626.3l-14.09,8.19" transform="translate(0 0)"/></g></g><g class="cls-8"><g class="cls-57"><g class="cls-8"><path class="cls-34" d="M236.83,90.76l141-81.91a60.45,60.45,0,0,1,10.34-4.77L247.17,86a61.19,61.19,0,0,0-10.34,4.76" transform="translate(0 0)"/><path class="cls-33" d="M247.17,86l141-81.92a67.72,67.72,0,0,1,9.36-2.56l-141,81.92A66.34,66.34,0,0,0,247.17,86" transform="translate(0 0)"/><path class="cls-32" d="M256.53,83.44l141-81.92A74.65,74.65,0,0,1,405.6.35l-141,81.92a74.65,74.65,0,0,0-8.11,1.17" transform="translate(0 0)"/><path class="cls-31" d="M264.64,82.27,405.6.35c2.46-.22,5-.34,7.57-.35l-141,81.92c-2.58,0-5.1.12-7.57.35" transform="translate(0 0)"/><path class="cls-30" d="M272.21,81.92,413.17,0q3.49,0,7.13.24L279.35,82.16q-3.64-.25-7.14-.24" transform="translate(0 0)"/><path class="cls-29" d="M279.35,82.16,420.3.24c2.31.16,4.65.4,7,.72l-141,81.92q-3.58-.48-7-.72" transform="translate(0 0)"/><path class="cls-28" d="M286.38,82.88,427.34,1c2.31.32,4.66.7,7.05,1.17L293.43,84q-3.58-.69-7.05-1.16" transform="translate(0 0)"/><path class="cls-27" d="M293.43,84l141-81.91q3.45.68,7,1.56L300.43,85.6q-3.56-.88-7-1.56" transform="translate(0 0)"/><path class="cls-26" d="M300.43,85.6l141-81.91q3.51.87,7.11,2l-141,81.92c-2.4-.73-4.77-1.38-7.1-2" transform="translate(0 0)"/><path class="cls-25" d="M307.53,87.57l141-81.92Q452,6.73,455.71,8l-141,81.92q-3.66-1.29-7.22-2.36" transform="translate(0 0)"/><path class="cls-24" d="M314.75,89.93,455.71,8q3.65,1.29,7.38,2.79l-141,81.91c-2.49-1-4.95-1.92-7.38-2.78" transform="translate(0 0)"/><path class="cls-23" d="M322.13,92.71l141-81.91q3.77,1.5,7.6,3.22l-141,81.92c-2.56-1.15-5.09-2.22-7.6-3.23" transform="translate(0 0)"/><path class="cls-22" d="M329.73,95.94,470.69,14q3.88,1.74,7.85,3.7l-141,81.92q-4-2-7.85-3.7" transform="translate(0 0)"/><path class="cls-21" d="M337.58,99.64l141-81.92q4.06,2,8.21,4.25l-141,81.92q-4.16-2.25-8.21-4.25" transform="translate(0 0)"/><path class="cls-20" d="M345.79,103.89,486.75,22q3.21,1.74,6.47,3.63l-141,81.91q-3.25-1.87-6.47-3.62" transform="translate(0 0)"/></g><path class="cls-35" d="M479.12,33.79C430.8,5.89,390.28,1.59,363.69,17l14.1-8.19C404.37-6.6,444.9-2.3,493.22,25.6l-14.1,8.19" transform="translate(0 0)"/><path class="cls-58" d="M465,42c-48.31-27.9-88.84-32.2-115.42-16.75L363.69,17C390.28,1.59,430.8,5.89,479.12,33.79L465,42" transform="translate(0 0)"/><path class="cls-35" d="M450.93,50.17C402.61,22.27,362.09,18,335.5,33.42l14.1-8.19C376.18,9.78,416.71,14.08,465,42l-14.09,8.19" transform="translate(0 0)"/><path class="cls-58" d="M436.83,58.36C388.51,30.47,348,26.16,321.4,41.61l14.1-8.19C362.09,18,402.61,22.27,450.93,50.17l-14.1,8.19" transform="translate(0 0)"/><path class="cls-35" d="M422.74,66.55c-48.32-27.89-88.85-32.2-115.43-16.75l14.09-8.19C348,26.16,388.51,30.47,436.83,58.36l-14.09,8.19" transform="translate(0 0)"/><path class="cls-58" d="M408.64,74.74C360.32,46.85,319.8,42.55,293.21,58l14.1-8.19c26.58-15.45,67.11-11.14,115.43,16.75l-14.1,8.19" transform="translate(0 0)"/><path class="cls-35" d="M394.55,82.94C346.23,55,305.7,50.74,279.12,66.19L293.21,58c26.59-15.44,67.11-11.14,115.43,16.75l-14.09,8.2" transform="translate(0 0)"/><path class="cls-58" d="M380.45,91.13C332.13,63.23,291.61,58.93,265,74.38l14.1-8.19C305.7,50.74,346.23,55,394.55,82.94l-14.1,8.19" transform="translate(0 0)"/><path class="cls-35" d="M366.35,99.32C318,71.42,277.51,67.12,250.92,82.57L265,74.38c26.59-15.45,67.11-11.15,115.43,16.75l-14.1,8.19" transform="translate(0 0)"/><path class="cls-58" d="M352.26,107.51c-48.32-27.9-88.85-32.2-115.43-16.75l14.09-8.19C277.51,67.12,318,71.42,366.35,99.32l-14.09,8.19" transform="translate(0 0)"/></g></g><polygon class="cls-59" points="487.04 248.94 628 167.02 584.2 203.99 443.24 285.91 487.04 248.94"/><g class="cls-8"><g class="cls-60"><polyline class="cls-35" points="584.2 203.99 628 167.02 613.9 175.21 570.1 212.18 584.2 203.99"/><polyline class="cls-10" points="570.1 212.18 613.9 175.21 599.81 183.4 556 220.38 570.1 212.18"/><polyline class="cls-35" points="556 220.38 599.81 183.4 585.71 191.59 541.91 228.57 556 220.38"/><polyline class="cls-10" points="541.91 228.57 585.71 191.59 571.61 199.79 527.81 236.76 541.91 228.57"/><polyline class="cls-35" points="527.81 236.76 571.61 199.79 557.52 207.98 513.72 244.95 527.81 236.76"/><polyline class="cls-10" points="513.72 244.95 557.52 207.98 543.42 216.17 499.62 253.14 513.72 244.95"/><polyline class="cls-35" points="499.62 253.14 543.42 216.17 529.33 224.36 485.52 261.33 499.62 253.14"/><polyline class="cls-10" points="485.52 261.33 529.33 224.36 515.23 232.55 471.43 269.53 485.52 261.33"/><polyline class="cls-35" points="471.43 269.53 515.23 232.55 501.13 240.75 457.33 277.72 471.43 269.53"/><polyline class="cls-10" points="457.33 277.72 501.13 240.75 487.04 248.94 443.24 285.91 457.33 277.72"/></g></g><g class="cls-8"><g class="cls-61"><g class="cls-8"><path class="cls-20" d="M352.26,107.51l141-81.91L495,26.66l-141,81.91-1.82-1.06" transform="translate(0 0)"/><path class="cls-19" d="M354.08,108.57,495,26.66Q499,29,503,31.52L362,113.44q-4-2.53-7.94-4.87" transform="translate(0 0)"/><path class="cls-18" d="M362,113.44,503,31.52q4.08,2.6,8.14,5.38L370.17,118.82Q366.1,116,362,113.44" transform="translate(0 0)"/><path class="cls-17" d="M370.17,118.82l141-81.92q4.21,2.88,8.4,6l-141,81.92q-4.19-3.09-8.39-6" transform="translate(0 0)"/><path class="cls-16" d="M378.56,124.79l141-81.92q4.34,3.18,8.63,6.57l-141,81.92q-4.29-3.39-8.63-6.57" transform="translate(0 0)"/><path class="cls-15" d="M387.19,131.36l141-81.92c2.94,2.32,5.87,4.72,8.78,7.17L396,138.53q-4.37-3.69-8.78-7.17" transform="translate(0 0)"/><path class="cls-14" d="M396,138.53l141-81.92q4.44,3.75,8.83,7.71l-141,81.91q-4.38-3.94-8.83-7.7" transform="translate(0 0)"/><path class="cls-13" d="M404.8,146.23l141-81.91q4.37,3.93,8.67,8.06l-141,81.91q-4.31-4.12-8.67-8.06" transform="translate(0 0)"/><path class="cls-12" d="M413.47,154.29l141-81.91q4.2,4,8.35,8.25l-141,81.92q-4.14-4.22-8.35-8.26" transform="translate(0 0)"/><path class="cls-11" d="M421.82,162.55l141-81.92q4,4.08,7.92,8.31l-141,81.91c-2.61-2.82-5.26-5.59-7.92-8.3" transform="translate(0 0)"/><path class="cls-10" d="M429.74,170.85l141-81.91q3.79,4.08,7.5,8.31l-141,81.92q-3.71-4.23-7.5-8.32" transform="translate(0 0)"/><path class="cls-10" d="M437.24,179.17l141-81.92q3.67,4.17,7.25,8.48l-141,81.91q-3.58-4.3-7.25-8.47" transform="translate(0 0)"/><path class="cls-10" d="M444.49,187.64l141-81.91q3.63,4.36,7.18,8.86l-141,81.92q-3.54-4.5-7.18-8.87" transform="translate(0 0)"/><path class="cls-10" d="M451.67,196.51l141-81.92q4,5,7.8,10.21l-141,81.92c-2.55-3.45-5.16-6.86-7.8-10.21" transform="translate(0 0)"/><path class="cls-10" d="M459.47,206.72l141-81.92q5.31,7.17,10.35,14.61l-141,81.91q-5-7.42-10.35-14.6" transform="translate(0 0)"/><path class="cls-10" d="M469.82,221.32l141-81.91q7.9,11.64,15.06,23.87l-141,81.91q-7.14-12.21-15.06-23.87" transform="translate(0 0)"/><path class="cls-10" d="M484.88,245.19l141-81.91L628,167,487,248.94c-.71-1.26-1.44-2.5-2.16-3.75" transform="translate(0 0)"/></g><path class="cls-62" d="M628,167C593.21,106.09,543.25,54.48,493.22,25.6l-14.09,8.19c50,28.88,100,80.49,134.77,141.42L628,167" transform="translate(0 0)"/><path class="cls-63" d="M613.9,175.21C579.11,114.28,529.16,62.67,479.13,33.79L465,42c50,28.89,100,80.49,134.78,141.42l14.09-8.19" transform="translate(0 0)"/><path class="cls-64" d="M599.81,183.4C565,122.47,515.06,70.87,465,42l-14.1,8.19c50,28.89,100,80.5,134.78,141.42l14.1-8.19" transform="translate(0 0)"/><path class="cls-65" d="M585.71,191.59C550.92,130.67,501,79.06,450.93,50.17l-14.09,8.19c50,28.89,100,80.5,134.77,141.43l14.1-8.2" transform="translate(0 0)"/><path class="cls-66" d="M571.61,199.79C536.82,138.86,486.87,87.25,436.84,58.36l-14.1,8.19c50,28.89,100,80.5,134.78,141.43l14.09-8.19" transform="translate(0 0)"/><path class="cls-67" d="M557.52,208C522.73,147.05,472.77,95.44,422.74,66.55l-14.09,8.2c50,28.88,100,80.49,134.77,141.42l14.1-8.19" transform="translate(0 0)"/><path class="cls-68" d="M543.42,216.17c-34.78-60.93-84.74-112.54-134.77-141.42l-14.1,8.19c50,28.88,100,80.49,134.78,141.42l14.09-8.19" transform="translate(0 0)"/><path class="cls-69" d="M529.33,224.36c-34.79-60.93-84.75-112.54-134.78-141.42l-14.1,8.19c50,28.88,100,80.49,134.78,141.42l14.1-8.19" transform="translate(0 0)"/><path class="cls-70" d="M515.23,232.55C480.44,171.62,430.48,120,380.45,91.13l-14.09,8.19c50,28.89,100,80.5,134.77,141.42l14.1-8.19" transform="translate(0 0)"/><path class="cls-71" d="M501.13,240.74c-34.78-60.92-84.74-112.53-134.77-141.42l-14.1,8.19c50,28.89,100,80.5,134.78,141.42l14.09-8.19" transform="translate(0 0)"/></g></g><path class="cls-72" d="M352.26,107.51c50,28.89,100,80.5,134.78,141.43l-43.8,37c-27.27-41.85-55.73-73-91.22-93.5-37.81-21.83-62.3-16.55-62.39,16.2-.1,35.42,30.69,65.92,67.29,103.8l56.35,60c52.29,55,86.5,112.88,86.3,184.4-.23,80.88-59.18,115.8-158.65,58.37-57.59-33.25-115.11-92.56-156.86-162.87l49.63-39.63c30.74,50.55,71.4,96.12,109.21,118,44.8,25.87,68.71,17.58,68.81-17.18.1-36.77-26-63.24-64.38-104.13L289.82,348c-43.57-45.91-87.09-111.21-86.89-183.4C203.16,83.7,265,57.13,352.26,107.51Z" transform="translate(0 0)"/></g><path class="cls-73" d="M556.67,616s-7,.45-2-9.46,7.88-13.29,5.63-22.53,5.63-24.77,15.32-22.3,17.79,12.62,17.79,16.9,3.16,23.88-4.73,32S556.67,616,556.67,616Z" transform="translate(0 0)"/><path class="cls-74" d="M551.49,634.74s2.48-31.88,17.57-37.62c14,0,22.64,2.59,30.3,35.25C556.11,637.56,551.49,634.74,551.49,634.74Z" transform="translate(0 0)"/><polygon class="cls-75" points="547.14 631.21 601.8 631.21 596.85 666.35 574.47 670.86 551.49 667.25 547.14 631.21"/><path class="cls-58" d="M569.29,579.89s-7.1-1-2.7,5.4,5.5,7.49,4.84,11.83c-.9,6,5.63,11.15,8.33,4.51.34-6.65,1.36-9,2.14-10.25s6.2-6.42,6.2-6.42,1.41-7.16-3-3.27C582.7,583.75,573.23,588,569.29,579.89Z" transform="translate(0 0)"/><path class="cls-58" d="M595.73,646.68h4.33a1.22,1.22,0,0,1,1.22,1.22v6.93a1.54,1.54,0,0,1-1.54,1.54h-4a1.22,1.22,0,0,1-1.22-1.22v-7.26a1.22,1.22,0,0,1,1.22-1.22Z"/><path class="cls-58" d="M547.3,645.33h4a1.54,1.54,0,0,1,1.54,1.54v6.93a1.22,1.22,0,0,1-1.22,1.22H547.3a1.22,1.22,0,0,1-1.22-1.22v-7.26A1.22,1.22,0,0,1,547.3,645.33Z" transform="translate(1098.93 1300.34) rotate(180)"/><path class="cls-76" d="M553.75,664.4l-26.14-5.56s-15.16,1.81-7.65,12.77c10.21,6.76,44.6,28.83,44.6,28.83L585,692s38.6-25.23,38.75-25.68,9.16-15.84-7.51-14.83c0-.19-30.49,12.58-30.49,12.58Z" transform="translate(0 0)"/><path class="cls-77" d="M565,701.15s-.68-4.51,2.14-4.84,13.06-5.75,13.06-5.75,3.83-.34,1.81,5.3a42.86,42.86,0,0,1-3.17,6.71,4.52,4.52,0,0,1-5.6,1.91Z" transform="translate(0 0)"/><path class="cls-77" d="M547.78,689.25s-7,6-3.83,7.78,15.09-.68,15.09-.68Z" transform="translate(0 0)"/><g class="cls-8"><polygon class="cls-10" points="299.53 603.84 299.46 629.11 275.45 643.06 275.52 617.79 299.53 603.84"/><polygon class="cls-20" points="275.52 617.79 275.45 643.06 251.28 629.11 251.36 603.84 275.52 617.79"/><polygon class="cls-15" points="299.53 603.84 275.52 617.79 251.36 603.84 275.37 589.89 299.53 603.84"/></g><g class="cls-8"><polygon class="cls-75" points="381.05 490.1 380.98 515.37 356.97 529.32 357.04 504.05 381.05 490.1"/><polygon class="cls-78" points="357.04 504.05 356.97 529.32 332.8 515.37 332.87 490.1 357.04 504.05"/><polygon class="cls-79" points="381.05 490.1 357.04 504.05 332.87 490.1 356.88 476.15 381.05 490.1"/></g><g class="cls-8"><polygon class="cls-75" points="692.27 663.32 692.2 688.59 668.19 702.55 668.26 677.28 692.27 663.32"/><polygon class="cls-78" points="668.26 677.28 668.19 702.55 644.03 688.59 644.1 663.32 668.26 677.28"/><polygon class="cls-79" points="692.27 663.32 668.26 677.28 644.1 663.32 668.11 649.37 692.27 663.32"/></g></g></g></svg>